<?xml version="1.0" encoding="UTF-8" standalone="no"?>
<!-- Generator: Adobe Illustrator 28.6.0, SVG Export Plug-In . SVG Version: 9.03 Build 54939)  -->

<svg
   version="1.1"
   id="female_backside"
   x="0px"
   y="0px"
   viewBox="0 0 278.7555542 504"
   enable-background="new 0 0 278.7555542 504"
   xml:space="preserve"
   sodipodi:docname="female_backside.svg"
   inkscape:version="1.3.2 (091e20e, 2023-11-25, custom)"
   xmlns:inkscape="http://www.inkscape.org/namespaces/inkscape"
   xmlns:sodipodi="http://sodipodi.sourceforge.net/DTD/sodipodi-0.dtd"
   xmlns="http://www.w3.org/2000/svg"
   xmlns:svg="http://www.w3.org/2000/svg"><defs
   id="defs1" /><sodipodi:namedview
   id="namedview1"
   pagecolor="#505050"
   bordercolor="#eeeeee"
   borderopacity="1"
   inkscape:showpageshadow="0"
   inkscape:pageopacity="0"
   inkscape:pagecheckerboard="0"
   inkscape:deskcolor="#505050"
   inkscape:zoom="1.5416667"
   inkscape:cx="113.83784"
   inkscape:cy="303.24325"
   inkscape:window-width="1920"
   inkscape:window-height="991"
   inkscape:window-x="-9"
   inkscape:window-y="-9"
   inkscape:window-maximized="1"
   inkscape:current-layer="female_backside" />
<path
   id="grey"
   fill="#5B5B5B"
   d="M212.0823822,253.9784546c-0.8228455-4.937088-2.938736-31.9735718-3.644043-50.6314087  c-0.7052917-18.6578217-8.2401276-26.8284607-8.2401276-28.3621216c0-25.0381317-6.3042145-35.0278778-6.2478943-36.1759796  c1.9395752-39.4085693-21.3353119-31.6503067-34.6077271-36.3229218c-10.2741394-3.616951-8.3273773-11.9019241-7.1884613-13.753334  c0.0675049-0.1097412,0.1532135-0.2471924,0.2507172-0.4022446c2.9577332,5.8644867,13.322937,19.424202,43.9258118,11.4225464  c0,0-14.6349182-1.0579453-15.5165405-17.2798004c-0.7781525-14.3198471-0.6073456-33.4397659-18.8684387-40.2758751  c-2.0075378-5.1475525-5.2474976-8.7917519-8.6382446-11.1228504c-6.6750793-4.5890388-13.929657-4.0554733-13.929657-4.0554733  s-7.2545776-0.5335655-13.9296646,4.0554733c-6.7854462,4.6649532-12.96875,14.5872059-9.8741913,31.2976589  c0,0-2.3803864,1.5869255-1.5869217,5.4660721s2.9975204,8.7280807,4.4081192,9.5215378  c1.4105988,0.7934647,7.0673828,9.5215454,8.2062988,11.3729553c1.1389236,1.8514099,3.0856857,10.1363831-7.188446,13.753334  c-13.2724304,4.6726151-36.5473099-3.0856476-34.6077347,36.3229218c0.0564804,1.1481018-6.2477417,11.1378479-6.2477417,36.1759796  c0,1.5336609-7.5349808,9.7042999-8.2403412,28.3621216c-0.7052383,18.6578369-2.8211975,45.6943207-3.6439896,50.6314087  c-0.8228455,4.9371033,1.4105988,7.053009,3.9966965,9.286438c2.5860977,2.2334595,7.6407471,3.2914124,8.9337921,2.1159058  c1.2930527-1.1755066,2.2334518-3.644043,3.7615967-5.9950562c1.5281525-2.3509827,1.4105988-5.8774872,2.2334518-9.1688843  c0.8228455-3.2913971,0-5.7599487-2.5860977-9.286438c-2.5860977-3.5265045-6.2301483-3.2913666-3.6440506-9.0513458  c2.5860977-5.7599487,11.6373825-21.7467346,15.8692398-49.7235718c0.2116776-1.3996124,9.6390915-9.0513763,11.4023361-26.6838531  c0.1524506-1.5251007,4.2798615,12.4823303,4.2798615,39.9669647c0,1.4202423-13.3312607,22.4520569-16.5050507,62.6540985  c-3.1738434,40.2020569,15.0509796,79.698822,15.5482712,84.8122559c0.4972916,5.1134033-1.9712524,8.9925537-4.0871506,17.9851074  c-2.1158981,8.9925842-5.5889816,20.1342468,2.6448669,47.3294678c6.9353867,22.9066162,7.4056473,36.1603699,7.317482,40.2158203  c-0.0881577,4.055481-0.5947876,3.2904968-0.3526459,6.3477173c0.1904068,2.4036255-0.9698486,7.1411438-5.3779068,12.0782471  c-4.4081268,4.9371033-5.0730133,4.7737732-5.642395,6.1713562C103.8189316,474.6196289,105.2295303,477,109.9315262,477  c4.0554733,0,15.869194,0,19.0430832,0c3.1738434,0,7.8464508-2.7330322,5.4660797-10.8439636  c-2.3803864-8.1109619-3.6146698-12.0782776-2.4685516-28.3001404c1.1461029-16.2218933,4.8552094-35.462738,3.2325745-59.5096436  c-1.5342255-22.7379456-1.8219757-36.4992371-0.411377-55.5423279s3.3265991-30.4160461,3.0738983-38.1743469  c-0.2527008-7.7582703,0-12.1664124,0-14.2822876c0-2.1159058,1.5105438-1.4987793,1.5105438-1.4987793  s1.5105438-0.6171265,1.5105438,1.4987793c0,2.1158752,0.2527008,6.5240173,0,14.2822876  c-0.2527008,7.7583008,1.6632996,19.1312561,3.0738983,38.1743469s1.1228485,32.8043823-0.4114227,55.5423279  c-1.6225891,24.0469055,2.0865173,43.2877502,3.2326202,59.5096436c1.1461182,16.2218628-0.0881653,20.1891785-2.4685364,28.3001404  C141.934494,474.2669678,146.6071014,477,149.7809448,477s14.9876099,0,19.0430756,0  c4.7019958,0,6.1125946-2.3803711,5.4660797-3.9673157c-0.5693817-1.397583-1.2342834-1.2342529-5.642395-6.1713562  c-4.4081268-4.9371033-5.5683136-9.6746216-5.3779144-12.0782471c0.2421417-3.0572205-0.2644806-2.2922363-0.3526459-6.3477173  c-0.0881653-4.0554504,0.3820343-17.3092041,7.3174744-40.2158203c8.2340088-27.1952209,4.7607727-38.3368835,2.6448822-47.3294678  c-2.1159058-8.9925537-4.5844421-12.8717041-4.0871582-17.9851074c0.4972992-5.1134338,18.7221222-44.610199,15.5482635-84.8122559  c-3.1738434-40.2020416-16.5050354-61.2338562-16.5050354-62.6540985c0-27.4846344,4.1274109-41.4920654,4.2798462-39.9669647  c1.7632599,17.6324768,11.190506,25.2842407,11.4023438,26.6838531  c4.2317963,27.9768372,13.2831421,43.963623,15.8692322,49.7235718c2.5860596,5.7599792-1.0579376,5.5248413-3.644043,9.0513458  c-2.5860901,3.5264893-3.4089508,5.9950409-2.5860901,9.286438c0.8228455,3.2913971,0.7052917,6.8179016,2.2333984,9.1688843  c1.5281982,2.3510132,2.4685974,4.8195496,3.7615967,5.9950562c1.2930908,1.1755066,6.3477325,0.1175537,8.9338379-2.1159058  C210.6717834,261.0314636,212.9052429,258.9155579,212.0823822,253.9784546z" />
<path
   id="_x34_7"
   fill="#FFFFFF"
   d="M134.8521118,97.6370926c-0.0343781,1.6495361,0,12.8129425,0,13.2831421  s-3.8791504-4.4668961-13.6357956-5.5248489c-0.3505936-0.0380173,4.8195496-1.7098465,7.8758469-5.0546112  C132.6963196,96.3963699,134.8986053,95.4054871,134.8521118,97.6370926z" />
<path
   id="_x34_6"
   fill="#FFFFFF"
   d="M109.9315262,108.7455597c3.5920181-0.1762619,18.0945663,0.8816223,26.4487228,7.9346161  c0.9715576,0.8202362,1.0579529,31.3858185,1.0579529,32.0911255c0,0.7052917-6.8766632-0.5289764-11.9900894-12.1664124  c-5.1134186-11.6374435-8.4635925-19.0430908-11.6374359-22.5695877  C110.6368256,110.5088043,107.1110992,108.8839569,109.9315262,108.7455597z" />
<path
   id="_x34_5"
   fill="#FFFFFF"
   d="M108.9007568,116.2099762c2.6732483-1.0860138-5.316925-5.2897415-9.9013672-4.1142426  c-4.5844498,1.175499-8.4635925,7.7582932-7.4056473,24.5679321  C91.6597824,137.7129822,99.6414871,119.9715729,108.9007568,116.2099762z" />
<path
   id="_x34_4"
   fill="#FFFFFF"
   d="M113.9282227,121.8523712c0.6971283,2.082428,3.8791504,10.1092987,5.2897034,12.6953888  c1.4106445,2.5861053-5.1350327,1.575119-9.782692,0.5877838c-6.0865021-1.2930756-5.8514023-4.3493805-2.3249054-9.2864761  C109.6123505,122.3462372,113.4084778,120.2997894,113.9282227,121.8523712z" />
<path
   id="_x34_3"
   fill="#FFFFFF"
   d="M121.1993637,142.9525757c-4.7438126,0.705307-10.4014587-0.1676483-11.7641296,0  c-0.5344772,0.0657654-0.8840256,3.1738434,3.1998825,11.4611206c4.0840302,8.287262,6.7779236,17.8675842,5.4073563,38.4388123  c-0.0945053,1.4184265,10.461937-9.5215454,14.9876175-19.572052c4.7057648-10.4505005,0.4701996-16.2806702-4.2905731-21.2177277  C123.9787445,147.1255951,121.1993637,142.9525757,121.1993637,142.9525757z" />
<path
   id="_x34_2"
   fill="#FFFFFF"
   d="M135.079483,186.6223602c0.2428284,1.9983521,0,19.7483826-1.8730774,30.9156342  c-0.1603394,0.9559784-4.937088-6.1125946-7.7582932-10.1092987c-2.8211975-3.9966888-4.5844421-6.2301483,0-10.8145905  C130.0325623,192.0296631,135.079483,186.6223602,135.079483,186.6223602z" />
<path
   id="_x34_1"
   fill="#FFFFFF"
   d="M100.4266739,141.0130005c-2.851944,1.0374298-5.4827576,6.1366425-5.4827576,7.9172516  c0,1.7806244,0.1846695,14.1233521-5.1134186,24.1738739c-0.7800446,1.4797516-2.2908325,4.9371033,1.587616,3.8791504  c3.8784561-1.0579529,8.8203735-6.9818573,10.5787964-16.7508698  C103.5838318,151.4161682,101.6776352,140.5579529,100.4266739,141.0130005z" />
<path
   id="_x34_0"
   fill="#FFFFFF"
   d="M88.419899,142.2472839c-2.7436142-0.1097565-6.0832062,9.9623566-6.4358597,17.4561615  c-0.3526459,7.4938049-1.4882431,16.0089111-0.8816223,16.8390198c1.675087,2.2922211,4.4412003-4.6726074,7.7748337-10.491333  S92.8280182,142.4235992,88.419899,142.2472839z" />
<path
   id="_x33_9"
   fill="#FFFFFF"
   d="M91.5679932,184.8997803c-0.0906143-0.4280548-0.3124771-0.8297272-0.7449722-0.8959198  c-4.8321457-0.7394867-10.1853867,3.5455627-12.9826736,19.5456848c-2.9386902,16.8096466-6.8115158,29.9363403-5.2896881,30.562973  c1.9983521,0.8228607,10.1092911-18.8079834,14.8112869-29.3874359  C91.3026047,195.8585815,92.1814957,187.7978973,91.5679932,184.8997803z" />
<path
   id="_x33_8"
   fill="#FFFFFF"
   d="M78.5457077,182.1555023c-0.4586639,4.3394165-5.7097549,40.4525604-6.3374481,42.7881317  c-0.69767,2.5959625-0.3973923-17.8947144,0.8125992-28.564621  C74.3139114,184.9766998,78.8171692,179.5870972,78.5457077,182.1555023z" />


<path
   id="_x33_5"
   fill="#FFFFFF"
   d="M122.0987091,217.6259155c-8.2880325-2.9091187-15.8700027-2.7328033-19.9254761,12.6074677  c-4.0554657,15.3402557-4.4081192,25.7434235-2.468544,33.1490631s10.0722504,8.287262,15.4392929,3.5264893  c5.3670349-4.7607727,14.5359344-11.6374359,19.1203308-14.9875946c4.5844879-3.350174,4.231842-16.2806702,2.0490112-21.0769806  C132.945694,223.4446869,126.8371353,219.2891235,122.0987091,217.6259155z" />

<path
   id="_x33_3"
   fill="#FFFFFF"
   d="M132.6774292,264.4403992c0,0-8.287262,4.9371033-8.287262,11.8137512  c0,6.8766785,5.8187256,35.4413147,6.7003479,39.3204651s2.9975128-17.2798462,2.4685364-29.269928  C133.0300903,274.3146057,132.6774292,264.4403992,132.6774292,264.4403992z" />
<path
   id="_x33_2"
   fill="#FFFFFF"
   d="M119.8057175,278.9424744c1.2150269,5.4269714,3.5264969,14.5915222,3.350174,35.0451965  c-0.1763687,20.4537048,0.9008484,26.0960999,0.009613,25.9197693s-4.4211349-9.0729065-6.3573074-21.3353271  C114.1633224,301.8212585,119.0213547,275.4390564,119.8057175,278.9424744z" />
<path
   id="_x33_1"
   fill="#FFFFFF"
   d="M127.2113647,310.9901733c0.5945816,12.5778198,4.937088,20.8063049,1.0579529,35.9702454  c-0.4562378,1.7834473-0.5289764-3.7028198-2.1159058-15.8692322  C124.5664902,318.9247742,127.0191422,306.9239197,127.2113647,310.9901733z" />
<path
   id="_x33_0"
   fill="#FFFFFF"
   d="M115.1037216,275.1374512c-1.8699341,3.5595398-7.8758392,17.7653809-4.1142426,35.0451965  c3.7615967,17.2798462,3.4089432,24.7876892,2.8211975,24.0823975c-0.5877533-0.7052917-3.5264969-9.7566528-7.4056473-21.5116272  c-3.8791428-11.7550049-0.9403992-25.3907776,2.9387512-32.3262329  C112.6110458,274.5856934,116.3377609,272.7883606,115.1037216,275.1374512z" />
<path
   id="_x32_9"
   fill="#FFFFFF"
   d="M122.450592,352.0738525c1.8220215,7.3468628,5.2922592,16.5157471,7.6558228,29.3182678  c2.4944305,13.5113831,0.8959351,20.9342957,0.7196045,21.3751221c-0.1763153,0.4407959-6.5240173-5.8187256-7.1411514-7.8464661  C123.0677261,392.8930359,121.2947617,347.4132385,122.450592,352.0738525z" />
<path
   id="_x32_8"
   fill="#FFFFFF"
   d="M123.7047043,356.9008179" />
<path
   id="_x32_7"
   fill="#FFFFFF"
   d="M117.4547195,345.4322815c0.0132065,2.7061768,2.5739594,62.4190063,1.6335602,62.771637  c-0.9403992,0.3526611-8.3339615-5.2897339-10.6848984-15.2814941c-2.351059-9.9917297-0.3526535-19.0430603,2.468544-29.0348206  c2.8211975-9.9917297,3.9862213-14.177063,4.4737015-16.5979309  C116.0273514,343.9041443,117.4495468,344.372406,117.4547195,345.4322815z" />
<path
   id="_x32_6"
   fill="#FFFFFF"
   d="M129.5623169,408.2195129c-0.2106934-1.695282-2.5860519-0.7208862-2.2334061,3.6284485  c0.3526077,4.3493652-1.2150421,27.5066833-0.5487442,28.5646362S129.9150085,411.0563354,129.5623169,408.2195129z" />
<path
   id="_x32_5"
   fill="#FFFFFF"
   d="M116.7494202,411.8479614c1.8229065,3.5567627,4.2893448,8.9338074,5.3185196,22.8046875  s-0.49897,18.8079834-0.7340698,17.3973999c-0.2351456-1.410614,0.1175461-19.6896362-3.4089508-30.2103271  c-2.8950424-8.6369019-3.2913971-8.8162537-3.2913971-9.9917603  C114.633522,410.6724854,116.127037,410.633606,116.7494202,411.8479614z" />
<path
   id="_x32_4"
   fill="#FFFFFF"
   d="M143.4971466,97.6370926c0.0343781,1.6495361,0,12.8129425,0,13.2831421  s3.8791504-4.4668961,13.635788-5.5248489c0.3506012-0.0380173-4.8195343-1.7098465-7.8758392-5.0546417  C145.6529388,96.3963699,143.4506531,95.4054871,143.4971466,97.6370926z" />
<path
   id="_x32_3"
   fill="#FFFFFF"
   d="M168.4177246,108.7455597c-3.5920105-0.1762619-18.0945587,0.8816223-26.4487152,7.9346161  c-0.9715576,0.8202362-1.0579529,31.3858185-1.0579529,32.0911255c0,0.7052917,6.8766632-0.5289764,11.9900818-12.1664124  c5.1134338-11.6374435,8.4635925-19.0430908,11.6374512-22.5695877  C167.7124329,110.5088043,171.2381592,108.8839569,168.4177246,108.7455597z" />
<path
   id="_x32_2"
   fill="#FFFFFF"
   d="M169.4485016,116.2099762c-2.6732483-1.0860138,5.316925-5.2897415,9.9013672-4.1142426  s8.4635925,7.7582932,7.4056396,24.5679321C186.6894684,137.7129822,178.7077789,119.9715729,169.4485016,116.2099762z" />
<path
   id="_x32_1"
   fill="#FFFFFF"
   d="M164.4210358,121.8523712c-0.6971283,2.082428-3.8791504,10.1092987-5.2897491,12.6953888  c-1.4105988,2.5861053,5.1350861,1.575119,9.7827454,0.5877533c6.0864868-1.293045,5.8513947-4.34935,2.3248901-9.2864456  C168.736908,122.3462372,164.9407806,120.2997894,164.4210358,121.8523712z" />
<path
   id="_x32_0"
   fill="#FFFFFF"
   d="M157.1498871,142.9525757c4.7438202,0.705307,10.401474-0.1676483,11.7641449,0  c0.5344696,0.0657654,0.8840179,3.1738434-3.1999512,11.4611206c-4.0839691,8.287262-6.7778625,17.8675842-5.4072876,38.4388123  c0.0944977,1.4184265-10.4619446-9.5215454-14.9876099-19.572052c-4.70578-10.4505005-0.4701996-16.2806702,4.2905579-21.2177582  C154.3705139,147.1255951,157.1498871,142.9525757,157.1498871,142.9525757z" />
<path
   id="_x31_9"
   fill="#FFFFFF"
   d="M143.2697754,186.6223602c-0.2428284,1.9983521,0,19.7483826,1.8730774,30.9156342  c0.1603394,0.9559784,4.937088-6.1125946,7.7582855-10.1092987c2.8211975-3.9966888,4.5844574-6.2301483,0-10.8145905  C148.3166962,192.0296631,143.2697754,186.6223602,143.2697754,186.6223602z" />
<path
   id="_x31_8"
   fill="#FFFFFF"
   d="M177.9225922,141.0130005c2.8519287,1.0374298,5.4827576,6.1366425,5.4827576,7.9172516  c0,1.7806244-0.1846771,14.1233521,5.1134186,24.1738739c0.7800446,1.4797516,2.2908173,4.9371033-1.5876312,3.8791504  s-8.8203583-6.9818573-10.5787811-16.7508698C174.7654266,151.4161682,176.6716309,140.5579529,177.9225922,141.0130005z" />
<path
   id="_x31_7"
   fill="#FFFFFF"
   d="M189.9293671,142.2472839c2.7436066-0.1097565,6.0832062,9.9623566,6.4358521,17.4561615  s1.4882507,16.0089111,0.8816223,16.8390198c-1.6750793,2.2922211-4.4412079-4.6726074-7.774826-10.491333  C186.138382,160.2324066,185.5212402,142.4235992,189.9293671,142.2472839z" />
<path
   id="_x31_6"
   fill="#FFFFFF"
   d="M186.7812653,184.8997803c0.0906067-0.4280548,0.3124695-0.8297272,0.7449799-0.8959198  c4.8321381-0.7394867,10.185379,3.5455627,12.982605,19.5456848c2.9387512,16.8096466,6.8115692,29.9363403,5.2897491,30.562973  c-1.9983521,0.8228607-10.1092987-18.8079834-14.8112946-29.3874664  C187.0466614,195.8585815,186.1677704,187.7978668,186.7812653,184.8997803z" />
<path
   id="_x31_5"
   fill="#FFFFFF"
   d="M199.8035583,182.1554718c0.4586639,4.339447,5.7097473,40.4525909,6.3374329,42.7881622  c0.6976776,2.5959625,0.3973999-17.8947144-0.8125916-28.564621  C204.0353546,184.9766693,199.5320892,179.5870972,199.8035583,182.1554718z" />


<path
   id="_x31_2"
   fill="#FFFFFF"
   d="M156.2505493,217.6259155c8.2880402-2.9091187,15.8700104-2.7328033,19.9254761,12.6074677  s4.4081268,25.7434235,2.4685516,33.1490631s-10.0722656,8.287262-15.4393005,3.5264893  s-14.5359344-11.6374359-19.1203766-14.9875946c-4.5844421-3.350174-4.2317963-16.2806702-2.0489655-21.0769806  C145.4035645,223.4446869,151.5121155,219.2891235,156.2505493,217.6259155z" />

<path
   id="_x31_0"
   fill="#FFFFFF"
   d="M145.6718292,264.4403992c0,0,8.287262,4.9371033,8.287262,11.8137512  c0,6.8766785-5.8187103,35.4413147-6.7003479,39.3204651c-0.8816223,3.8791199-2.9975128-17.2798462-2.4685364-29.269928  C145.3191833,274.3145752,145.6718292,264.4403992,145.6718292,264.4403992z" />
<path
   id="_x30_9"
   fill="#FFFFFF"
   d="M158.5435333,278.9424744c-1.2150269,5.4269714-3.5264893,14.5915222-3.3501587,35.0451965  c0.1763153,20.4537048-0.9008636,26.0960999-0.009613,25.9197693c0.8912354-0.1763306,4.4211273-9.0729065,6.3572998-21.3353271  C164.1859283,301.8212585,159.3279114,275.4390564,158.5435333,278.9424744z" />
<path
   id="_x30_8"
   fill="#FFFFFF"
   d="M151.1378937,310.9901428c-0.5945892,12.5778503-4.937088,20.8063354-1.0579529,35.9702759  c0.4562378,1.7834473,0.5289764-3.7028198,2.1159058-15.8692322S151.3301239,306.9239197,151.1378937,310.9901428z" />
<path
   id="_x30_7"
   fill="#FFFFFF"
   d="M163.2455292,275.1374512c1.8699493,3.5595398,7.8758545,17.7653809,4.1142578,35.0451965  c-3.7615967,17.2798462-3.4089508,24.7876892-2.8211975,24.0823975c0.587738-0.7053223,3.5264893-9.7566528,7.4056396-21.5116272  c3.8791504-11.7550049,0.9403992-25.3907776-2.9387512-32.3262329  C165.7382202,274.5856934,162.0114899,272.7883606,163.2455292,275.1374512z" />
<path
   id="_x30_6"
   fill="#FFFFFF"
   d="M155.8986664,352.0738525c-1.8220215,7.3468628-5.2922668,16.5157471-7.6558228,29.3182678  c-2.4944305,13.5113831-0.8959351,20.9342957-0.7196045,21.3751221c0.1763153,0.4407959,6.5240173-5.8187256,7.1411591-7.8464661  C155.2815247,392.8930359,157.0545044,347.4132385,155.8986664,352.0738525z" />
<path
   id="_x30_5"
   fill="#FFFFFF"
   d="M154.6445618,356.9008179" />
<path
   id="_x30_4"
   fill="#FFFFFF"
   d="M160.8945312,345.4322815c-0.0131989,2.7061768-2.5739441,62.4190063-1.6335449,62.771637  c0.9403992,0.3526611,8.3338928-5.2897339,10.6848907-15.2814941c2.3509979-9.9917297,0.3526459-19.0430603-2.4685516-29.0348206  c-2.8211975-9.9917297-3.9862061-14.177063-4.4736938-16.5979309  C162.3219147,343.9041138,160.899704,344.372406,160.8945312,345.4322815z" />
<path
   id="_x30_3"
   fill="#FFFFFF"
   d="M148.7868958,408.2195129c0.2107544-1.695282,2.5861053-0.7208862,2.2334442,3.6284485  c-0.3526459,4.3493652,1.2150574,27.5066833,0.5487518,28.5646362  C150.9028015,441.4705505,148.4342499,411.0563354,148.7868958,408.2195129z" />
<path
   id="_x30_2"
   fill="#FFFFFF"
   d="M161.5998383,411.8479614c-1.8229065,3.5567627-4.2893372,8.9338074-5.3185272,22.8046875  c-1.0291748,13.8708801,0.4989777,18.8079834,0.7340851,17.3973999c0.2350922-1.410614-0.1175537-19.6896362,3.4089355-30.2103271  c2.89505-8.6369019,3.2913971-8.8162537,3.2913971-9.9917603  C163.7157288,410.6724854,162.222229,410.633606,161.5998383,411.8479614z" />
<path
   id="_x30_1"
   fill="#FFFFFF"
   d="M140.9110565,52.3216095c0,0,9.1628571-7.4959373,20.1546783-5.4660721  s13.929657,14.0178261,14.6835022,29.7988968c0.6478119,13.5616379,1.891037,17.3436432,5.2412109,20.8063354  c0,0-13.515686,2.468544-20.6300201-6.7003479s-9.1689301-31.9147949-20.9826508-34.9123154  c0,0,7.4191437,5.4520302,12.5190582,22.0406036s10.7558289,24.1565018,35.7939453,21.8642807  c0,0-9.390564-3.3426361-9.7681885-20.6300049c-0.4586487-20.9959755-5.7483978-33.9425354-20.118866-34.6478348  C147.375824,43.9633522,140.9110565,52.3216095,140.9110565,52.3216095z" />
</svg>
