<?xml version="1.0" encoding="UTF-8" standalone="no"?>
<!-- Generator: Adobe Illustrator 28.6.0, SVG Export Plug-In . SVG Version: 9.03 Build 54939)  -->

<svg
   version="1.1"
   id="female_front"
   x="0px"
   y="0px"
   viewBox="0 0 278.7555542 504"
   enable-background="new 0 0 278.7555542 504"
   xml:space="preserve"
   sodipodi:docname="female_frontside.svg"
   inkscape:version="1.3.2 (091e20e, 2023-11-25, custom)"
   xmlns:inkscape="http://www.inkscape.org/namespaces/inkscape"
   xmlns:sodipodi="http://sodipodi.sourceforge.net/DTD/sodipodi-0.dtd"
   xmlns="http://www.w3.org/2000/svg"
   xmlns:svg="http://www.w3.org/2000/svg"><defs
   id="defs8" /><sodipodi:namedview
   id="namedview8"
   pagecolor="#505050"
   bordercolor="#eeeeee"
   borderopacity="1"
   inkscape:showpageshadow="0"
   inkscape:pageopacity="0"
   inkscape:pagecheckerboard="0"
   inkscape:deskcolor="#505050"
   inkscape:zoom="1.5416667"
   inkscape:cx="139.13513"
   inkscape:cy="251.99999"
   inkscape:window-width="1920"
   inkscape:window-height="991"
   inkscape:window-x="-9"
   inkscape:window-y="-9"
   inkscape:window-maximized="1"
   inkscape:current-layer="female_front" />
<path
   fill="#5B5B5B"
   d="M212.6732941,249.2660675c-1.4078369-10.7347565-1.0558777-24.637146-3.3436127-46.282608  c-2.287735-21.6455231-9.5542297-26.3589478-9.6788788-27.8048096c-1.7597961-20.4136505-6.8039246-32.6159668-6.7458801-34.25737  c1.1731873-33.2014999-14.8996124-34.0227356-21.4695129-34.8439789  c-6.5699158-0.8212357-11.6146698-1.6424408-15.7208557-4.9274292c-4.1061859-3.2849197-2.7046967-8.6707764-1.877121-10.0895004  c1.2318573-2.1117554,2.7706604-5.5808868,4.7514038-11.0280228c0.4693298-1.2905502,2.3464508-2.1117859,3.2850037-3.871582  c1.837738-3.4457474,1.819458-7.8935547,2.346344-10.0895004c0.6561279-2.7340965,1.0040741-9.2288666,0.9972687-12.3185425  c-0.0587158-26.6316204-25.8396759-26.7489395-25.8396759-26.7489395s-24.666481-0.9385586-25.8397369,26.7489395  c0,0-6.2765503,3.8715172-7.6843872,19.0057678s-3.6369095,20.061676-15.3102264,29.0952988  c-4.274231,3.3077164,9.1509399,3.0503159,17.0113678,2.4637146c9.1286392-0.6813049,16.5420837-5.1620712,17.3633194-13.2571335  c0.1657486-1.6340714,2.2290802,6.8045807-1.8771133,10.0895004c-4.1061935,3.2849884-9.1509399,4.1061935-15.7208481,4.9274292  c-6.5699081,0.8212433-22.6427155,1.6424789-21.4695129,34.8439789c0.0580444,1.6414032-4.9860916,13.8437195-6.7458878,34.25737  c-0.1246567,1.4458618-7.3911438,6.1592865-9.6789398,27.8048096c-2.287674,21.645462-1.9357147,35.5478516-3.3435593,46.282608  c-1.4078369,10.7347565-0.5279388,10.9107513,2.111763,13.7264252c2.6396942,2.8156738,6.1592865,4.57547,9.1509399,5.4553528  c2.9916534,0.8799133,4.2235107-6.8631897,6.1592255-8.6229858c1.9358368-1.7597961,1.0559387-6.1592712,2.1118164-8.2710571  c1.0558777-2.1117554,0.3519592-5.1034088-2.8156738-8.6230011s-6.3352661-5.8073273-2.4637146-13.7264099  s10.5587769-23.5812683,14.430275-44.5228424c0.4658203-2.5196228,8.4470215-8.9749603,11.6147079-27.4528351  c0.1600952-0.9341278,3.1676331,2.8156738,3.5195923,11.9666595c0.3519592,9.1509094,1.5838165,26.3969116-0.3519592,32.0282593  s-15.1342468,33.4361267-17.2460022,58.953186c-2.1117554,25.5170288,0.5279388,47.5144958,7.3911438,66.5202942  s10.030838,23.5812683,7.3911438,35.8998413s-6.3352661,20.7655945,0.5279388,45.2267761  c6.8631516,24.4611816,8.6230087,36.7797546,8.2710495,39.5954285s-1.2318573,6.8631897-0.7039185,10.5587769  c0.5279388,3.6955566-6.8632126,10.0308228-8.4470291,11.9666138c-1.5838165,1.9357605-3.1676331,7.3911438,2.287735,7.0391846  c2.1722488-0.1400757,16.7180099,0,20.4136353,0c3.6955719,0,7.0391998-3.3436279,5.1034088-10.2068176  c-1.9357758-6.8632202-3.6955719-16.1901245-2.287735-32.380249s5.8073425-32.5562439,3.1676483-57.5453491  c-2.6397095-24.9891052,0.3519592-43.6429443,1.7597961-62.1208191s1.0558777-50.9167786,1.0558777-52.1486206  c0-1.2318726,1.1438599-0.9972229,1.1438599-0.9972229s1.1438751-0.2346497,1.1438751,0.9972229  c0,1.231842-0.3519592,33.6707458,1.0558777,52.1486206s4.3994904,37.1317139,1.7597961,62.1208191  s1.7597961,41.3552246,3.1676331,57.5453491s-0.3519592,25.5170288-2.287735,32.380249  c-1.9357758,6.8631897,1.4078369,10.2068176,5.1034088,10.2068176s18.2413788-0.1400757,20.4136353,0  c5.455368,0.3519592,3.8714905-5.1034241,2.287735-7.0391846c-1.5838165-1.935791-8.9749603-8.2710571-8.4470215-11.9666138  c0.5279388-3.6955872-0.3519592-7.743103-0.7039185-10.5587769s1.4078369-15.1342468,8.2710419-39.5954285  s3.1676331-32.9082031,0.5279388-45.2267761s0.5279388-16.894043,7.3911438-35.8998413s9.5028992-41.0032654,7.3911438-66.5202942  c-2.1117554-25.5170593-15.3102264-53.3218384-17.2460022-58.953186s-0.7039185-22.8773499-0.3519592-32.0282593  c0.3519592-9.1509857,3.3594971-12.9007874,3.5195923-11.9666595c3.1676331,18.4778748,11.1488953,24.9332123,11.6146545,27.4528351  c3.8715515,20.9415741,10.5587769,36.6037598,14.4303284,44.5228424s0.7039185,10.2068176-2.4637146,13.7264099  s-3.8715515,6.5112457-2.8156738,8.6230011c1.0558777,2.1117859,0.1759186,6.511261,2.1117554,8.2710571  c1.9357758,1.7597961,3.1676331,9.5028992,6.1592865,8.6229858c2.9916534-0.8798828,6.5112457-2.639679,9.1509399-5.4553528  S214.081131,260.000824,212.6732941,249.2660675z"
   id="path1" />
<path
   id="_x35_3"
   fill="#FFFFFF"
   d="M124.3315201,104.3175049c-1.9673004,0.3278885-12.553215,3.9888763-11.6146545,6.6872635  c0.9385529,2.6983185,9.2681961,6.4525528,21.3521957,6.4525528  C134.7826843,117.4573212,127.8511124,103.7309113,124.3315201,104.3175049z" />
<path
   id="_x35_2"
   fill="#FFFFFF"
   d="M105.2083969,110.0662079c-3.4022751-2.1117859-9.9721832,0.8120651-13.0224915,7.9777145  c-2.1375961,5.0215302-3.4022751,12.4358902-2.5810394,12.2012558c0.8212433-0.2346497,1.1318893-3.2240295,7.6637955-10.4110031  C103.80056,112.6472092,105.8615341,110.4715729,105.2083969,110.0662079z" />
<path
   id="_x35_1"
   fill="#FFFFFF"
   d="M111.0743866,112.7645264c-3.7266388,0-12.5532761,9.7375412-15.3689499,15.9554901  c-2.8156738,6.2179413-3.7542267,8.2123871-1.2904587,8.2123871c2.4637146,0,9.0975952-1.0008698,13.6090927-10.4414597  C111.2107925,119.8225403,112.6580963,112.7645264,111.0743866,112.7645264z" />
<path
   id="_x35_0"
   fill="#FFFFFF"
   d="M134.1202087,121.3289032c-6.7383804-2.5810623-16.4761276-1.0559082-21.4621124,6.6871948  s-6.980423,15.2515717-6.1591797,18.5365295c0.8212357,3.2849426,10.3379059,8.265274,18.0672379,9.7375336  c7.3911514,1.4078369,11.6717453-1.1795654,12.3667068-12.0839386  C137.5534668,134.4687195,137.9204407,122.7845001,134.1202087,121.3289032z" />
<path
   id="_x34_9"
   fill="#FFFFFF"
   d="M100.3982315,141.5078735c-1.4602737-1.4849548-4.0230789-1.4136353-6.5297546,0.1069336  c-2.7292328,1.6555786-5.391922,5.0291595-6.4926834,9.9825592c-2.1117554,9.5028992-1.6424789,16.542099-2.1117554,20.0616913  s1.9680481,2.4637146,7.7299118-3.8715668c5.7618637-6.3352661,7.8185501-13.8377686,8.2255783-18.4191895  C101.5322113,145.8487091,101.7836609,142.9166107,100.3982315,141.5078735z" />
<path
   id="_x34_8"
   fill="#FFFFFF"
   d="M108.37603,152.3013153c1.2911224,1.7167664,4.0475311,4.2234802,4.164856,5.9246216  c0.1173172,1.7011414,0,7.0391846,0.0586014,7.8017578c0.0587158,0.7625885-1.0558243-1.1145325-1.4664459-3.8128815  c-0.410675-2.6983643-0.3284149-3.4616089-1.9708939-5.5733643S108.0729446,151.8982849,108.37603,152.3013153z" />
<path
   id="_x34_6_00000034811362670975985990000004087873597324617344_"
   fill="#FFFFFF"
   d="M114.3886719,154.4130402  c1.7657623,1.3780518,6.4232559,3.2556305,6.2472763,4.2235107c-0.1759796,0.9678955-0.7919083,2.551712-2.0237656,2.1997528  s-3.2556229-2.660675-4.2235107-3.7940521S113.4071426,153.6470337,114.3886719,154.4130402z" />
<path
   id="_x34_6"
   fill="#FFFFFF"
   d="M115.0046005,160.1323853c1.2652359,0.7979126,3.2556229,2.7276764,3.8715515,3.8715515  c0.6159286,1.1438599,0.5279388,3.4219666-1.0558777,2.194931c-1.5838165-1.2270508-2.9916534-3.1628265-3.4316025-3.7787476  C113.9487228,161.804184,114.4229279,159.765564,115.0046005,160.1323853z" />
<path
   id="_x34_5"
   fill="#FFFFFF"
   d="M114.8286209,165.1477966c0.8061218,0.8668976,2.1997452,2.9036713,3.1676331,4.9274445  c0.9678879,2.0237579-1.2727127,1.1438599-3.3875504-1.8421021  C113.5274887,166.7065582,114.3001556,164.5795135,114.8286209,165.1477966z" />
<path
   id="_x34_4"
   fill="#FFFFFF"
   d="M114.2163315,170.6031799c1.1051483,1.3356476,2.9421463,2.5396271,3.5159531,4.57547  c0.4959946,1.7597961-0.8848877,3.5195923-1.5863113,2.287735s-0.9114914-2.8156738-2.0823135-4.3994904  C112.8928452,171.483078,113.300415,169.4962311,114.2163315,170.6031799z" />
<path
   id="_x34_3"
   fill="#FFFFFF"
   d="M115.5905685,179.7924194c-0.9870071-1.2572937-1.6345673-2.2673798-1.3742371,4.0678864  c0.2602692,6.3352661-0.3368301,9.9389191-1.614563,14.5476532c-0.9963531,3.5938263-4.4348755,11.9666138-4.564949,14.3130035  c-0.130127,2.346405,9.4954453,6.6872253,11.1939316,6.5699158c1.698494-0.1173248-1.5520706-8.6816711-1.3932877-18.4192047  c0.1587906-9.7375488,0.1931763-15.4862061,0-16.6593781C117.6442947,183.0390625,117.1492157,181.7778778,115.5905685,179.7924194z  " />
<path
   id="_x34_2"
   fill="#FFFFFF"
   d="M101.4646606,157.5721893c-0.6773911,4.5343018-5.4658661,12.0630951-9.9533463,15.142746  c-0.3523026,0.2417755-0.8298416,0.6918945-0.3840179,1.3652191c0.4722443,0.7132263,2.829834,0.8407898,5.3174591-1.0132599  c2.5456924-1.8973389,4.4814682-4.9552917,5.1169128-8.798996  C102.3772736,159.3344421,101.6593399,156.2690735,101.4646606,157.5721893z" />
<path
   id="_x34_1"
   fill="#FFFFFF"
   d="M86.9358444,182.6577759c-1.535759-0.965332-2.8156738-0.7919006-2.8156738,4.839447  s0,19.181778-9.5028992,44.3468628c-0.3108444,0.8231659-1.3319016,4.2845001,0.439888,3.0796509  c2.1998062-1.4958344,11.7906952-22.5254059,15.3982773-41.179245  C91.8590546,186.4867859,90.0154877,184.5935516,86.9358444,182.6577759z" />
<path
   id="_x34_0"
   fill="#FFFFFF"
   d="M80.2486191,180.8979797c-3.1429291-1.2571716-5.8953171,8.0950623-8.4470215,22.1734314  c-2.5517044,14.0783844-3.2556229,32.4444427-1.9357758,32.1043854s8.4728317-17.1370544,11.0867157-33.0722656  C83.3869247,187.2625732,82.4483643,181.7778778,80.2486191,180.8979797z" />

<path
   id="_x33_8"
   fill="#FFFFFF"
   d="M130.5787964,159.8684082c-5.3243713,0.6050415-8.8869705,3.8715515-9.4149094,6.6832123  c-0.2930298,1.5605621-0.9972229,7.3818817-0.1759796,6.9552155c0.8212357-0.4266663,4.8687668-4.780777,11.7906265-4.6634521  c1.178894,0.0199738,3.0209961-0.2346497,3.2556305-4.223526  C136.2687988,160.6309967,134.4503479,159.4284668,130.5787964,159.8684082z" />
<path
   id="_x33_7"
   fill="#FFFFFF"
   d="M136.0341644,172.4509583c-0.4162445-2.8096466-7.008316-2.342865-10.470787,0.8798981  c-3.8128967,3.5489197-5.7193375,10.4707947-4.7514496,11.3506927s2.287735-1.5838165,12.1425858-1.0558777  c1.1456146,0.0613708,2.9036713-0.0879974,3.1676483-3.2556305  C136.3861237,177.2024078,136.3861237,174.8267212,136.0341644,172.4509583z" />
<path
   id="_x33_6"
   fill="#FFFFFF"
   d="M135.5062256,189.7849579c-0.4471741-2.0638733-3.144455-4.8753357-7.6551132-4.3115082  c-3.5195923,0.4399567-6.7707825,3.0805817-7.2151642,5.1914062c-0.3519592,1.6717987-0.6159286,5.7193298,2.4637146,5.9833069  c3.4190674,0.2930603,5.7486649-0.1173248,7.3911362,1.1145325c2.3441772,1.7581329,4.4495544,0.885376,4.7514496-0.8505707  C135.594223,194.8883667,135.8875122,191.544754,135.5062256,189.7849579z" />
<path
   id="_x33_5"
   fill="#FFFFFF"
   d="M135.3595734,207.5588989c0,4.3975372,0.7038574,15.2515717,1.1732025,20.1790009  c0.469223,4.9274292,0.3519592,8.9163055-1.9944458,9.5028992c-2.3463898,0.5865936-5.8659821-1.877121-8.7990341-11.6146545  c-2.9329376-9.7375488-4.6927872-23.1119995-4.5754089-24.9891052c0.1173172-1.877121,4.9240265-1.8022308,8.4470139-0.1173248  C132.3092041,201.8102264,135.3595734,204.3912659,135.3595734,207.5588989z" />

<path
   id="_x33_3"
   fill="#FFFFFF"
   d="M111.309021,228.3245239c-3.2717361-4.4532318-6.5494232-4.8057709-7.2151642,1.4078064  c-0.5279388,4.9274292-0.5279388,10.7347565,2.9916534,26.2209625s8.0950699,24.9891205,10.0308456,35.1959381  s2.8156738,18.6538391,5.2793884,17.9499207s12.3185654-24.2851868,10.5587692-36.2518005  C130.9208221,259.018158,117.6442947,236.9474945,111.309021,228.3245239z" />
<path
   id="_x33_2"
   fill="#FFFFFF"
   d="M135.594223,295.9006958c0-2.1775818-0.05867-3.5782776-1.3491821-4.0475464  c-0.8805847-0.3202209-2.2770538,0.4318848-2.8743896,2.9916382c-1.2318115,5.2793884-3.8714981,11.9666443-8.6229477,20.0617065  c-2.2668839,3.8620911-3.8424301,7.6235962-4.3994904,11.2626953c-0.6105652,3.9885559,0.009819,7.7399292,2.4637146,9.1509705  c4.2195358,2.4262085,11.9666061,1.0558472,13.1984634-14.0783997  C135.1739349,306.9469604,135.594223,302.4119263,135.594223,295.9006958z" />
<path
   id="_x33_1"
   fill="#FFFFFF"
   d="M99.3424072,238.1793518c0.9458618,1.8917236,3.5195923,6.6872253,3.6369171,10.0895081  c0.1173172,3.4022675,1.8771133,16.6594238,5.2793884,26.5142517c3.4022141,9.8548889,8.9710922,25.3663025,9.6202164,32.6148987  c0.7039185,7.8604431-1.4078369,13.3744507-1.2905121,21.586853c0.1055756,7.3903809-0.2347031,11.0280762-2.5810394,11.7319641  c-2.2134705,0.664032-6.1006851-0.2346497-11.1453781-14.1956787c-5.0447464-13.9610596-8.3297043-28.2740784-8.5643387-44.3468933  c-0.234642-16.0727844,1.7597961-34.3746796,2.5810318-38.7155151  C97.6999359,239.1179199,98.8731308,237.240799,99.3424072,238.1793518z" />

<path
   id="_x32_9"
   fill="#FFFFFF"
   d="M116.119133,366.7618103c-0.1405106,2.9506836-1.1731949,23.4639587,1.4078369,35.0786133  c2.5809784,11.6146545,4.810112,21.1175537,5.044754,31.7936707c0.2346344,10.6760864-2.6983566,13.2571106-3.2849579,13.0224915  c-0.5865936-0.2346497,1.0558777-11.497345-4.8101654-29.0953064c-5.8659286-17.5979614-7.3910904-30.6204529-4.810051-41.4138794  c1.1997757-5.0172424,1.9667664-7.7068176,2.4719772-9.206665c0.4944763-1.4679565,1.2761002-2.1139832,2.4051437-2.1143188  C115.7671738,364.8260498,116.1777954,365.5299683,116.119133,366.7618103z" />
<path
   id="_x32_8"
   fill="#FFFFFF"
   d="M132.7785339,373.067749c-0.5821228-2.7166443-2.1997375-3.6955566-3.1676331-0.1759644  c-0.9678802,3.5195923-6.8631973,12.5825195-6.2472687,23.6692505s1.6718063,20.5016174,1.4958267,31.0603943  s-1.1438675,12.0546265,0.5279388,11.9666138c1.6718063-0.0879517,5.8073196-24.4318237,7.0391769-36.2224731  C133.658432,391.5749512,133.3064728,375.5314636,132.7785339,373.067749z" />
<path
   id="_x32_7"
   fill="#FFFFFF"
   d="M154.1307373,104.3175049c1.9673004,0.3278885,12.5532227,3.9888763,11.6146545,6.6872253  c-0.9385529,2.6983566-9.2682648,6.4525909-21.3521881,6.4525909  C143.6795654,117.4573212,150.611145,103.7309113,154.1307373,104.3175049z" />
<path
   id="_x32_6"
   fill="#FFFFFF"
   d="M173.2538605,110.0661774c3.4022675-2.1117554,9.9721832,0.8120956,13.0224915,7.9777451  c2.1376038,5.0215302,3.4022675,12.4358902,2.5810394,12.2012558c-0.8212433-0.2346497-1.131897-3.2240295-7.6637878-10.4110031  C174.6616974,112.6472092,172.6007233,110.4715729,173.2538605,110.0661774z" />
<path
   id="_x32_5"
   fill="#FFFFFF"
   d="M167.3878784,112.7645264c3.7266235,0,12.5532074,9.7375412,15.3688812,15.9554901  c2.8156738,6.2179413,3.7542267,8.2123871,1.2905121,8.2123871s-9.09758-1.0008698-13.6090851-10.4414597  C167.2514648,119.8225403,165.8041534,112.7645264,167.3878784,112.7645264z" />
<path
   id="_x32_4"
   fill="#FFFFFF"
   d="M144.3420563,121.3288727c6.7383728-2.5810318,16.47612-1.0558777,21.4620972,6.6872253  c4.9859924,7.743103,6.980423,15.2515717,6.1591949,18.5365295c-0.8212433,3.2849426-10.3379211,8.265274-18.0672455,9.7375336  c-7.3911438,1.4078369-11.6717377-1.1795654-12.3667145-12.0839386  C140.9087982,134.468689,140.5418091,122.7845001,144.3420563,121.3288727z" />
<path
   id="_x32_3"
   fill="#FFFFFF"
   d="M178.0639648,141.5078735c1.4603271-1.4849548,4.0231323-1.4136353,6.5298157,0.1069336  c2.7292328,1.6555786,5.391922,5.0291595,6.4926758,9.9825592c2.1117554,9.5028992,1.6424866,16.542099,2.1117554,20.0616913  c0.4692841,3.5195923-1.9680481,2.4637146-7.7299042-3.8715668c-5.7618561-6.3352661-7.8185577-13.8377686-8.2255707-18.4191895  C176.9300385,145.8487091,176.6786041,142.9166107,178.0639648,141.5078735z" />
<path
   id="_x32_2"
   fill="#FFFFFF"
   d="M170.0862274,152.3012848c-1.2911224,1.7167969-4.0475311,4.2235107-4.164856,5.9246521  c-0.1173096,1.7011414,0,7.0391846-0.0586548,7.8017578c-0.0586548,0.7625885,1.0558777-1.1145325,1.4664917-3.8128815  c0.4106293-2.6983643,0.3284302-3.4616089,1.9709015-5.5733643S170.3893127,151.8982849,170.0862274,152.3012848z" />
<path
   id="_x32_1"
   fill="#FFFFFF"
   d="M164.0735931,154.4130402c-1.7657776,1.3780518-6.4232635,3.2556305-6.2472839,4.2235107  c0.1759796,0.9678955,0.7919159,2.551712,2.0237732,2.1997528s3.2556152-2.6606903,4.2235107-3.7940521  C165.0414734,155.9088745,165.0551147,153.6470337,164.0735931,154.4130402z" />
<path
   id="_x32_0"
   fill="#FFFFFF"
   d="M163.4576569,160.1323853c-1.2652435,0.7979126-3.2556152,2.7276764-3.8715515,3.8715515  c-0.615921,1.1438599-0.5279388,3.4219666,1.0558777,2.194931c1.5838165-1.2270508,2.9916534-3.1628265,3.4316101-3.7787476  C164.5135345,161.804184,164.0393219,159.765564,163.4576569,160.1323853z" />
<path
   id="_x31_9"
   fill="#FFFFFF"
   d="M163.6336365,165.1477966c-0.8061218,0.8668976-2.1997375,2.9036713-3.1676331,4.9274445  c-0.9678802,2.0237579,1.2727051,1.1438599,3.3875427-1.8421021  C164.9347687,166.7065582,164.1621094,164.5795135,163.6336365,165.1477966z" />
<path
   id="_x31_8"
   fill="#FFFFFF"
   d="M164.2459259,170.6031799c-1.1051483,1.3356476-2.9421539,2.5396271-3.5159454,4.57547  c-0.4960022,1.7597961,0.8848724,3.5195923,1.5863037,2.287735s0.9114838-2.8156738,2.0823059-4.3994904  S165.1618347,169.4962311,164.2459259,170.6031799z" />
<path
   id="_x31_7"
   fill="#FFFFFF"
   d="M162.8716888,179.7924194c0.9869995-1.2572937,1.6345673-2.2673798,1.3742371,4.0678864  s0.3368378,9.9389191,1.614563,14.5476532c0.9963531,3.5938263,4.4348755,11.9666138,4.5649414,14.3130035  c0.1300812,2.346405-9.4954376,6.6872253-11.193924,6.5699158c-1.6985016-0.1173248,1.5520782-8.6816711,1.39328-18.4192047  c-0.158783-9.7375488-0.193161-15.4862061,0-16.6594086C160.8179626,183.0390625,161.3130493,181.7778778,162.8716888,179.7924194z" />
<path
   id="_x31_6"
   fill="#FFFFFF"
   d="M176.9975891,157.5721893c0.6773987,4.5343018,5.4658661,12.0630951,9.9533539,15.142746  c0.3523102,0.2417755,0.8298492,0.6918945,0.3840179,1.3652191c-0.4722443,0.7132263-2.829834,0.8407898-5.3174591-1.0132599  c-2.5457001-1.8973389-4.4814758-4.9552917-5.1169128-8.798996  C176.0849762,159.3344421,176.8029175,156.2690735,176.9975891,157.5721893z" />
<path
   id="_x31_5"
   fill="#FFFFFF"
   d="M191.526413,182.6577759c1.5357666-0.965332,2.8156738-0.7919006,2.8156738,4.839447  s0,19.181778,9.5028992,44.3468628c0.3108521,0.8231659,1.3318939,4.2845001-0.4399414,3.0796509  c-2.1997528-1.4958344-11.7906494-22.5254059-15.3982239-41.179245  C186.6032104,186.4867859,188.4467621,184.5935516,191.526413,182.6577759z" />
<path
   id="_x31_4"
   fill="#FFFFFF"
   d="M198.2136383,180.8979797c3.1429291-1.2571716,5.8953247,8.0950623,8.4470215,22.1734314  c2.551712,14.0783844,3.2556305,32.4444427,1.9357758,32.1043854c-1.3198395-0.3400574-8.4728394-17.1370544-11.0867157-33.0722656  C195.0753326,187.2625732,196.0138855,181.7778778,198.2136383,180.8979797z" />

<path
   id="_x31_2"
   fill="#FFFFFF"
   d="M147.8834534,159.8684082c5.3243713,0.6050415,8.8869781,3.8715515,9.414917,6.6832123  c0.2930298,1.5605621,0.9972229,7.3818817,0.1759796,6.9552155s-4.8687744-4.780777-11.7906342-4.6634521  c-1.1788788,0.0199738-3.0209808-0.2346497-3.2556305-4.223526  C142.1934509,160.6309967,144.0119019,159.4284668,147.8834534,159.8684082z" />
<path
   id="_x31_1"
   fill="#FFFFFF"
   d="M142.4280853,172.4509583c0.4162445-2.8096466,7.008316-2.342865,10.4707947,0.8798981  c3.8128967,3.5489197,5.7193451,10.4707947,4.7514496,11.3506927c-0.9678802,0.8798981-2.287735-1.5838165-12.1425934-1.0558777  c-1.1455994,0.0613708-2.9036713-0.0879974-3.1676331-3.2556305  C142.0761261,177.2024078,142.0761261,174.8266907,142.4280853,172.4509583z" />
<path
   id="_x31_0"
   fill="#FFFFFF"
   d="M142.9560242,189.7849579c0.4471741-2.0638733,3.144455-4.8753357,7.6551208-4.3115082  c3.5195923,0.4399567,6.7707825,3.0805817,7.2151642,5.1914062c0.3519592,1.6717987,0.6159363,5.7193298-2.4637146,5.9833069  c-3.4190674,0.2930603-5.7486725-0.1173248-7.3911438,1.1145325c-2.344162,1.7581329-4.4495544,0.885376-4.7514496-0.8505707  C142.868042,194.8883667,142.5747375,191.544754,142.9560242,189.7849579z" />
<path
   id="_x30_9"
   fill="#FFFFFF"
   d="M143.1026764,207.5588989c0,4.3975372-0.7039185,15.2515717-1.1731873,20.1790009  c-0.4692841,4.9274292-0.3519592,8.9163055,1.9944305,9.5028992s5.8659821-1.877121,8.7989807-11.6146545  c2.9329987-9.7375488,4.6927948-23.1119995,4.57547-24.9891052c-0.1173248-1.877121-4.9240265-1.8022308-8.4470215-0.1173248  C146.1529999,201.8102264,143.1026764,204.3912659,143.1026764,207.5588989z" />

<path
   id="_x30_7"
   fill="#FFFFFF"
   d="M167.1532288,228.3244934c3.2717438-4.4532013,6.5494232-4.8057404,7.2151642,1.4078369  c0.5279388,4.9274292,0.5279388,10.7347565-2.9916534,26.2209625s-8.0950623,24.9891205-10.030838,35.1959381  s-2.8156738,18.6538391-5.2793884,17.9499207s-12.318573-24.2851868-10.5587769-36.2518005  C147.5414429,259.018158,160.8179626,236.9474945,167.1532288,228.3244934z" />
<path
   id="_x30_6"
   fill="#FFFFFF"
   d="M142.868042,295.9006653c0-2.1775513,0.0586548-3.5782471,1.3491821-4.0475159  c0.8805695-0.3202209,2.2770386,0.4318848,2.8743286,2.9916382c1.2318573,5.2793884,3.8715515,11.9666443,8.6230011,20.0617065  c2.2668762,3.8620911,3.8424225,7.6235962,4.3994904,11.2626953c0.6105652,3.9885559-0.0098267,7.7399292-2.4637146,9.1509399  c-4.2195435,2.426239-11.9666138,1.0558777-13.1984711-14.0783691  C143.2883301,306.9469604,142.868042,302.4119263,142.868042,295.9006653z" />
<path
   id="_x30_5"
   fill="#FFFFFF"
   d="M179.1198425,238.1793518c-0.9458618,1.8917236-3.5195923,6.6872253-3.6369019,10.0895081  c-0.1173248,3.4022675-1.877121,16.6593933-5.2793884,26.5142517c-3.4022827,9.8548584-8.9710999,25.3663025-9.620224,32.6148987  c-0.7039185,7.8604431,1.4078369,13.3744507,1.2905121,21.586853c-0.1055756,7.3903809,0.2346344,11.0280457,2.5810394,11.7319641  c2.2134705,0.664032,6.1006317-0.2346497,11.1453705-14.1956787c5.044754-13.9610596,8.3297119-28.2740784,8.5643463-44.3468933  c0.2346344-16.0727844-1.7597961-34.3746796-2.5810394-38.7155151  C180.7623291,239.1179199,179.5891266,237.240799,179.1198425,238.1793518z" />

<path
   id="_x30_3"
   fill="#FFFFFF"
   d="M162.3431244,366.7618103c0.1405029,2.9506836,1.1731873,23.4639587-1.4078369,35.0786133  c-2.5810394,11.6146545-4.8101196,21.1175537-5.044754,31.7936707c-0.2346344,10.6760864,2.698349,13.2571106,3.2849579,13.0224915  c0.5865936-0.2346497-1.0558777-11.497345,4.8101044-29.0953064c5.8659973-17.5979614,7.3911438-30.6204529,4.8101196-41.4138794  c-1.1997833-5.0172424-1.9667816-7.7068176-2.4719849-9.206665c-0.4944763-1.4679565-1.2761078-2.1139832-2.4051514-2.1143188  C162.6950836,364.8260498,162.2844543,365.5299683,162.3431244,366.7618103z" />
<path
   id="_x30_2"
   fill="#FFFFFF"
   d="M145.6837158,373.067749c0.5821381-2.7166443,2.1997375-3.6955566,3.1676331-0.1759644  c0.9678802,3.5195923,6.863205,12.5825195,6.2472839,23.6692505c-0.6159363,11.086731-1.671814,20.5016174-1.4958344,31.0603943  s1.1438751,12.0546265-0.5279388,11.9666138c-1.6717987-0.0879822-5.8073273-24.4318237-7.0391846-36.2224731  C144.8038177,391.5749512,145.155777,375.5314636,145.6837158,373.067749z" />
<g
   id="_x30_1">
	<path
   fill="#FFFFFF"
   d="M143.6892853,29.7021389c0,0,15.3688812,9.0336552,17.4806366,27.922102   C161.3224945,58.9889336,164.3375549,36.6240044,143.6892853,29.7021389z"
   id="path2" />
	<path
   fill="#FFFFFF"
   d="M139.8176727,34.394928c0,0,5.5140839,12.435894,17.3633728,18.0672455   C157.1810455,52.4621735,143.4546356,49.4118576,139.8176727,34.394928z"
   id="path3" />
	<path
   fill="#FFFFFF"
   d="M135.3595734,31.5792542c0,0,1.5251617,18.4192352,19.1231232,23.6985931   C154.4826965,55.2778473,134.8902893,52.9314499,135.3595734,31.5792542z"
   id="path4" />
	<path
   fill="#FFFFFF"
   d="M117.5269699,44.1324692c0,0-1.6424713,9.1509399,0.4692841,16.8940468   C117.996254,61.026516,112.8341827,53.1660919,117.5269699,44.1324692z"
   id="path5" />
	<path
   fill="#FFFFFF"
   d="M112.1302643,63.1383018c-1.3729553,1.5102196-0.5866013,14.6649361-3.1676331,24.050518   c-2.0786438,7.5587006-7.5490189,14.2893829-16.8940506,15.6035309c0,0,14.5696182-4.2021408,16.4247665-22.8773575   C110.2531433,62.1997452,112.1302643,63.1383018,112.1302643,63.1383018z"
   id="path6" />
	<path
   fill="#FFFFFF"
   d="M122.6890411,89.8871765c0,0,0.3519592,9.2682571-9.7375412,11.7320099   C112.9514999,101.6191864,120.3426437,98.2168808,122.6890411,89.8871765z"
   id="path7" />
	<path
   fill="#FFFFFF"
   d="M128.0857544,49.6464958c0,0,3.4022675,5.1620712,8.9162445,6.6872292   c0,0-1.5251007-1.7597961-2.5809784-4.692791c0,0,5.1620636,4.8101082,10.3241425,4.692791   c0,0-1.6424866-1.5251579-2.9329987-4.57547c0,0,4.1061859,2.3463936,7.743103,5.0447464   c3.6369171,2.6983566,9.1509399,2.8156776,9.1509399,2.8156776s-0.7039185,3.4022713-0.4692841,3.9888687   c0,0,2.1117554-2.3463593,3.6369171-1.1731949c1.5251617,1.1731949-1.2905121,12.7878532-2.5810394,13.8437614   c-1.2905121,1.0558472-2.698349,2.3463669-3.1676331,3.4022446c-0.4692688,1.0558777-0.821228,7.7724304-6.8045349,12.4358902   c-5.2098846,4.0606461-7.5671234,4.3994904-10.2948151,4.1355209c-3.1792908-0.3076706-7.1858368-2.6103592-11.2920227-6.9511948   c-4.1061935-4.3408279-5.7487335-9.7375412-5.9833145-11.0280533c-0.2346344-1.2905197-3.0503082-0.8212433-3.8715515-5.8659897   c-0.8212357-5.044754-0.7039185-9.8548622,0.4692841-8.6816635c1.1731949,1.1731949,1.8771133,1.7597961,2.2290726,0.5866013   c0.3519592-1.1731682-1.9944382-3.988842-0.3519592-4.9273987S126.2086334,55.3951645,128.0857544,49.6464958z"
   id="path8" />
</g>
</svg>
