<?xml version="1.0" encoding="UTF-8" standalone="no"?>
<!-- Generator: Adobe Illustrator 28.6.0, SVG Export Plug-In . SVG Version: 9.03 Build 54939)  -->

<svg
   version="1.1"
   id="male_front"
   x="0px"
   y="0px"
   viewBox="0 0 278.7555542 504"
   enable-background="new 0 0 278.7555542 504"
   xml:space="preserve"
   sodipodi:docname="male_frontside.svg"
   inkscape:version="1.3.2 (091e20e, 2023-11-25, custom)"
   xmlns:inkscape="http://www.inkscape.org/namespaces/inkscape"
   xmlns:sodipodi="http://sodipodi.sourceforge.net/DTD/sodipodi-0.dtd"
   xmlns="http://www.w3.org/2000/svg"
   xmlns:svg="http://www.w3.org/2000/svg"><defs
   id="defs1" /><sodipodi:namedview
   id="namedview1"
   pagecolor="#505050"
   bordercolor="#eeeeee"
   borderopacity="1"
   inkscape:showpageshadow="0"
   inkscape:pageopacity="0"
   inkscape:pagecheckerboard="0"
   inkscape:deskcolor="#505050"
   inkscape:zoom="1.5416667"
   inkscape:cx="139.13514"
   inkscape:cy="252"
   inkscape:window-width="1920"
   inkscape:window-height="991"
   inkscape:window-x="-9"
   inkscape:window-y="-9"
   inkscape:window-maximized="1"
   inkscape:current-layer="male_front" />
<path
   id="grey"
   fill="#5B5B5B"
   d="M226.7235107,251.4860382c-0.1722717-12.9209747-1.8950806-31.1826019-3.6178741-50.994751  s-9.7900238-29.2917175-9.647644-31.6994476c1.7227936-29.1152344-9.5405884-38.2424622-9.8199463-43.931282  c-1.3782349-28.0815659-14.6488342-30.9638062-24.9230957-33.3073807c-3.6616974-0.835228-7.7987976-2.3018417-9.3605347-3.3881607  c-5.943634-4.1347122-12.4902649-5.3406219-12.4902649-5.6852264c0-0.3445587,1.3782349-14.6437607,1.3782349-14.6437607  c0.7752686,0.6029739,3.5317383,0,3.876297-3.1871719c0.3445587-3.1871758,1.0336761-5.1683884,1.0336761-7.8387222  s-1.9650726-1.6764374-1.8950806-2.9287529c1.4056396-25.1452065-17.7189178-26.7868862-21.3052673-26.8741379  c-0.3696594-0.0089931-0.9403229-0.0149307-1.5779419,0.0156879c-4.4634399,0.2143364-22.2324982,2.588541-20.8757935,26.8584499  c0.0699921,1.2523155-1.8950729,0.258419-1.8950729,2.9287529s0.6891174,4.6515465,1.0336761,7.8387222  c0.3445587,3.1871719,3.1010284,3.7901459,3.8762894,3.1871719c0,0,1.3782349,14.299202,1.3782349,14.6437607  c0,0.3446045-6.5466232,1.5505142-12.4902649,5.6852264c-1.5617371,1.086319-5.6988373,2.5529327-9.360527,3.3881607  c-10.2742615,2.3435745-23.5448685,5.2258148-24.9231033,33.3073807  c-0.2792053,5.6888199-11.5427322,14.8160477-9.8199387,43.931282c0.1425247,2.4077301-7.9248581,11.8872986-9.6476517,31.6994476  c-1.7227974,19.812149-3.445591,38.0737762-3.6178741,50.994751c-0.1722794,12.9209442,0.3445015,15.8497162,1.550518,17.4002228  c1.2059555,1.5505066,8.4416962,8.9585266,13.0932426,9.8199463c4.6515503,0.8613892,7.0634613-5.5129395,7.0634613-7.9248657  s4.6515503-8.9585266,2.7564774-13.2655334c-1.8950729-4.3069763-7.7525787-8.9585266-8.2694168-11.5427246  s-1.0336838-9.992218,6.8911819-27.3924408s8.0971375-20.6735535,8.2694168-42.5530548  c0.0109177-1.388855,5.8575058-4.3069916,11.0258942-19.4675903c0.6337814-1.8591919,0.5168381,5.6852264,8.4416962,17.400238  c0.6180801,0.9137421-0.5168381,10.6813354,1.0336761,28.7706757c0.0882339,1.0299377-8.4416962,14.6437683-6.8911819,42.3807831  c0.0774689,1.3867493-18.6061935,43.0698853,3.4455872,85.4506531c0.7112579,1.3668823,3.4455948,6.3743286,1.0336838,18.4338989  c-2.4119186,12.0595703-6.2020645,21.3626709,0.3445587,42.2084961s13.7823639,30.8380432,12.5764084,60.9869995  c-0.0619202,1.5492859-4.8401337,9.2640381-9.1308212,14.1268921C100.0980377,472.1761475,100.7871628,477,105.4387054,477  c3.2778015,0,16.5388412,0,21.1903839,0c4.6515503,0,7.0634613-2.2396545,5.168396-8.9585571  c-1.8950806-6.7189026-3.6178741-38.0737915-0.3445587-54.4403076c3.2733002-16.3666077,4.4792633-37.7292786,0.6891174-55.4740601  c-3.7901611-17.7447815-5.6852341-18.0893555-0.8614044-28.0815735c4.823822-9.992218,5.5756073-22.2216492,6.0297852-35.1450195  c0.6316986-17.9745178-0.3445587-25.4973755,2.0673523-25.7557983c2.411911,0.2584229,1.4356689,7.7812805,2.0673523,25.7557983  c0.4541779,12.9233704,1.2059631,25.1528015,6.0297852,35.1450195c4.8238373,9.992218,2.9287567,10.336792-0.8613892,28.0815735  c-3.7901611,17.7447815-2.584198,39.1074524,0.6891174,55.4740601c3.2733002,16.3665161,1.5504761,47.721405-0.3445587,54.4403076  C145.0630035,474.7603455,147.4749146,477,152.1264648,477s17.9125824,0,21.1903839,0  c4.6515503,0,5.3406677-4.8238525,0.172287-10.681366c-4.2906952-4.862854-9.0689087-12.5776062-9.1308289-14.1268921  c-1.2059479-30.1489563,6.0297852-40.1411743,12.576416-60.9869995c6.5466156-20.8458252,2.7564697-30.1489258,0.3445587-42.2084961  s0.3224182-17.0670166,1.0336761-18.4338989c22.0517883-42.3807678,3.3681183-84.0639038,3.4455872-85.4506531  c1.5505219-27.7370148-6.9794159-41.3508453-6.8911743-42.3807831c1.5504761-18.0893402,0.4155884-27.8569336,1.0336761-28.7706757  c7.9248505-11.7150116,7.8079071-19.2594299,8.4416962-17.400238c5.1683807,15.1605988,11.0151215,18.0787354,11.0258942,19.4675903  c0.1722717,21.8795013,0.3445129,25.1528168,8.2694092,42.5530548c7.9248657,17.4002228,7.40802,24.8082428,6.8911896,27.3924408  c-0.5168457,2.584198-6.3743439,7.2357483-8.2694244,11.5427246c-1.8950653,4.3070068,2.756485,10.8536072,2.756485,13.2655334  s2.411911,8.7862549,7.0634613,7.9248657c4.651535-0.8614197,11.8872833-8.2694397,13.0932465-9.8199463  C226.378952,267.3357544,226.8957977,264.4069824,226.7235107,251.4860382z" />
<path
   id="_x35_2"
   fill="#FFFFFF"
   d="M134.8985138,107.9771652c-1.9748383-0.6582794-25.6696548-4.1347122-26.8756104-3.7901535  c-1.2059631,0.3445587-6.0298462,11.0258942-14.1269302,18.2616348c-0.5744934,0.5133743-4.4792633,4.6515427,4.4792709,10.3367691  s26.5310516,7.0634613,30.8380432,6.7189026s9.399704-4.8777924,9.1308136-11.6001511  C137.9995422,119.290184,137.9995422,109.0108414,134.8985138,107.9771652z" />
<path
   id="_x35_1"
   fill="#FFFFFF"
   d="M104.1466141,138.556778c0.8537903,1.0435333,6.4604797,5.0822449,8.010994,5.8575134  c1.5505142,0.7752533,2.4980545-2.584198,1.8950729-3.7901611  C113.449707,139.4181824,102.5960922,136.6617126,104.1466141,138.556778z" />
<path
   id="_x35_0"
   fill="#FFFFFF"
   d="M103.9743271,145.964798c2.7564774-1.0336761,5.8575058,0.8614044,7.3218842,3.4456024  c1.143486,2.0179138,0.9475403,4.9099579,0.2584229,5.2545166S102.7618179,146.4194946,103.9743271,145.964798z" />
<path
   id="_x34_9"
   fill="#FFFFFF"
   d="M134.2955322,143.2944641c0.6210938,0.6728516,1.119812,6.0297852,0.172287,7.8387299  c-0.9475403,1.8089294-3.876297,2.0673523-9.992218,3.70401c-6.1159286,1.6366577-7.4941635,4.0485687-8.7001801,2.9287567  c-0.8791351-0.8164062,0.8614578-6.8050537,6.4605408-11.1981812  C127.8350525,142.1746521,133.2618561,142.1746521,134.2955322,143.2944641z" />
<path
   id="_x34_8"
   fill="#FFFFFF"
   d="M129.1271515,157.6798096c-6.9495468,1.4340363-11.7150192,7.1496124-12.576416,9.9060822  s0,5.5990753,1.0336838,5.2545166c1.0336761-0.3445587,8.4416962-0.5168304,11.6288681-0.1722717  c3.1871643,0.3445587,5.6852264-5.3406677,6.3743439-8.700119S134.5539551,156.5599976,129.1271515,157.6798096z" />
<path
   id="_x34_7"
   fill="#FFFFFF"
   d="M126.6290894,175.5968933c-4.9099655-0.3445587-8.4416962,2.6703339-7.9248581,7.235733  c0.4267883,3.769989,4.4792709,3.7901459,7.7525787,3.5317383c3.2733078-0.2584229,6.2020645,2.5841827,7.7525864,1.5505066  C135.3010712,187.187088,135.2288055,176.2003784,126.6290894,175.5968933z" />
<path
   id="_x34_6"
   fill="#FFFFFF"
   d="M125.9973984,192.2792969c2.2578354,1.2504883,6.4317703,4.4793091,6.8911819,7.2357788  s1.3094177,21.25,1.4930878,25.8418884c0.2297058,5.7426453-2.5267639,6.8911896-5.0535278,4.7089691  c-3.3281555-2.8743134-9.1882477-28.3686981-10.3367767-31.8142853S118.5318909,188.144577,125.9973984,192.2792969z" />
<path
   id="_x34_5"
   fill="#FFFFFF"
   d="M106.9317932,176.0850067c1.3345947,1.6682434,5.6278,9.0733948,6.3169174,12.1744232  c0.6890564,3.1010437,2.4119186,23.659729,2.5267105,26.6459045c0.1149139,2.9862213-1.4930267,3.6753082-2.7564774,2.6416168  c-1.2633209-1.0336761-3.675293-5.6277924-3.9049377-7.1208801c-0.2297058-1.4930878-0.1148529-13.0932465-1.263382-17.6873627  c-1.1485367-4.5941315-1.7228012-7.2357483-2.1822739-10.3367767  C105.2089996,179.3009338,105.5535583,174.3622131,106.9317932,176.0850067z" />
<path
   id="_x34_4"
   fill="#FFFFFF"
   d="M106.1278229,163.7957306c0.9620667,1.7637939,3.4455948,3.5604858,4.4792709,5.2832489  c1.0336761,1.7227936,1.0336761,4.5941162,0.1148529,4.823822s-5.0535965-5.8574982-5.5129471-7.0060272  C104.749527,165.7482452,105.4387054,162.5323486,106.1278229,163.7957306z" />
<path
   id="_x34_3"
   fill="#FFFFFF"
   d="M106.01297,152.9995575c2.4118576,2.0673523,5.3980942,5.0535278,5.9723587,7.1208801  s-0.4594116,4.7089844-0.9188232,4.2495728c-0.4594116-0.4594269-2.9861755-4.5941315-5.0535355-7.1208496  C103.9456177,154.7223511,105.4614487,152.526825,106.01297,152.9995575z" />
<path
   id="_x34_2"
   fill="#FFFFFF"
   d="M86.4879532,130.1437988c-4.7379913-1.1148224-16.5482635,4.2328796-17.342804,17.342804  c-0.4594116,7.580307,0.1148529,18.835907-0.1148529,20.9032593s3.1010284,1.9524994,9.4179459-5.9723663  C84.7651596,154.492691,94.297966,131.9814453,86.4879532,130.1437988z" />
<path
   id="_x34_1"
   fill="#FFFFFF"
   d="M95.9059067,134.2785492c1.1885757,1.6639557,5.3980942,6.0871735,4.5941162,24.9230652  c-0.0391769,0.917984-4.1347046-5.5129395-4.938736-8.4991302c-0.3498306-1.2995911-0.0978546-3.8495636-0.1147919-7.3505859  C95.4245071,138.8083649,95.2572174,133.3703461,95.9059067,134.2785492z" />
<path
   id="_x34_0"
   fill="#FFFFFF"
   d="M92.2306061,148.1757202c1.4484787,3.3797913-1.263443,18.9507599-12.1744232,20.9032593  c-1.3984375,0.2502441,2.4119186-1.7227631,7.2356796-10.9109955  C92.1157532,148.9797363,91.8859863,147.3717499,92.2306061,148.1757202z" />
<path
   id="_x33_9"
   fill="#FFFFFF"
   d="M121.9775467,85.9253769c1.9119492,1.4339676,8.2694168,9.6476593,9.6476517,11.7150116  s0.4594116,2.9861832-8.9585342,2.9861832s-20.44384-3.6753006-19.1804581-5.5129471  c0.6699142-0.9744186,4.8238297-3.4455948,8.9585342-6.3169174  C116.5794525,85.9253769,120.5993042,84.8917007,121.9775467,85.9253769z" />
<path
   id="_x33_8"
   fill="#FFFFFF"
   d="M102.4525299,102.8087769c0.4235535,1.270668-0.8039703,6.776329-6.891243,13.0932846  c-6.0871506,6.3168793-11.2555389,10.336731-11.7149506,10.5664368s-0.7811737-6.7231979,4.2495651-14.1269226  C94.1831131,103.3830414,102.2228241,102.1196976,102.4525299,102.8087769z" />
<path
   id="_x33_7"
   fill="#FFFFFF"
   d="M95.3316422,100.2820511c-0.5447998,1.634346-8.3842773,9.3030548-15.5051651,21.1329575  c-1.5101166,2.5087128-2.0721283-7.1874237,1.6079483-13.6675491  C86.717659,98.4444046,96.1356125,97.8700943,95.3316422,100.2820511z" />

<path
   id="_x33_5"
   fill="#FFFFFF"
   d="M67.0203629,176.0275879c3.7269821,1.8634796,5.6852264,17.0557098,1.8950195,33.422226  c-3.7900925,16.3665619-11.1981125,27.3924561-12.2317886,27.7370605  c-1.0336761,0.3445129-0.1722794-14.6438141,1.0336761-28.7707367c1.2059593-14.1269226,5.3406677-26.0142059,6.0297852-29.2875214  S65.9866867,175.5107422,67.0203629,176.0275879z" />
<path
   id="_x33_4"
   fill="#FFFFFF"
   d="M76.8403015,176.3721466c3.6178665,4.3069916,5.1683884,19.6398621-0.8613968,34.8004761  c-4.7269363,11.8848572-8.0700378,18.662674-9.4753799,22.9131775c-1.1821365,3.5754395-0.9846878,5.3362579-1.3782349,6.2020569  c-0.8613968,1.8950806-2.3835373-2.291626,0.1722794-10.8536072c3.4455948-11.5426941,6.2020645-20.6735535,7.40802-34.4559174  S73.3927383,172.2678986,76.8403015,176.3721466z" />

<path
   id="_x33_2"
   fill="#FFFFFF"
   d="M105.2089996,226.9649048c1.2299805,0.8065491,13.4952316,14.0120697,18.3190613,26.4161987  c4.823822,12.4041443,7.7525787,29.8043518,5.1683807,39.2797546c-2.5841904,9.4753723-10.6813278,21.7072449-13.4377975,21.7072449  c-2.7564774,0-0.8613968-14.1269531-4.8238297-27.9093323c-3.9624329-13.7823486-5.6852875-15.3328857-6.7189026-36.1786957  C102.6822357,229.4342499,101.705986,224.6678467,105.2089996,226.9649048z" />
<path
   id="_x33_1"
   fill="#FFFFFF"
   d="M100.7871628,247.6958771c0.5168381,10.5090485,1.5505142,24.1191559,4.9961014,36.3510284  c3.4455948,12.2318115,6.7575378,22.3773804,6.5466232,33.7667542c-0.1722794,9.3031006-3.6178665,14.4714966-5.8575058,15.160614  c-2.2396317,0.6891479-4.2497025-5.7168579-9.1308136-16.3665771c-5.6852264-12.4041138-5.6852264-32.560791-3.7901535-48.7550964  C95.0418091,255.1165314,100.417511,240.1796875,100.7871628,247.6958771z" />
<path
   id="_x33_0"
   fill="#FFFFFF"
   d="M132.1420441,289.0429688c-2.5842438,8.7862854-8.2694244,21.7072144-13.9546509,29.6320801  s-4.6515503,13.0932617-0.3445587,14.2992249c4.3069916,1.2059326,12.16008-4.737793,14.6437683-19.6398926  C135.5876312,294.7282104,134.0197296,282.658844,132.1420441,289.0429688z" />

<path
   id="_x32_8"
   fill="#FFFFFF"
   d="M108.0229034,350.0299377c0,7.6115723,2.0620499,27.4335938,5.8574982,43.4144592  c3.2733154,13.7823486,6.3743439,24.6359558,6.5466232,40.1411133s-1.895134,19.6398926-2.411911,17.744812  c-0.5168381-1.89505-1.0581055-25.9043579-6.2020645-43.586731c-5.5129471-18.9507141-10.8536072-26.3587646-9.9922104-40.6579895  C102.7325287,351.9514771,108.0229034,346.5843506,108.0229034,350.0299377z" />
<path
   id="_x32_7"
   fill="#FFFFFF"
   d="M126.1122513,352.441864c-1.7227936,5.1683655-5.5129471,12.0595398-4.6515427,31.0103149  c0.8613968,18.9507446,0.8613968,19.4675903,0.8613968,19.4675903s0.6891174,30.665741,0.6891174,38.2460938  c0,7.5802612,1.3782349,5.6851807,1.7227936-1.2059937s2.411911-26.5310669,4.9961014-43.7590027  c2.5841522-17.2279663-0.5168304-38.0737915-1.2059479-41.3471069S126.5745316,351.0550232,126.1122513,352.441864z" />
<path
   id="_x32_6"
   fill="#FFFFFF"
   d="M143.5209198,107.9771652c1.9748383-0.6582794,25.6696472-4.1347122,26.8756104-3.7901535  s6.0297852,11.0258942,14.1269226,18.2616348c0.5744934,0.5133743,4.4792633,4.6515427-4.4792633,10.3367691  c-8.9585419,5.6852264-26.5310516,7.0634613-30.8380432,6.7189026s-9.399704-4.8777924-9.1308136-11.6001511  C140.4198914,119.290184,140.4198914,109.0108414,143.5209198,107.9771652z" />
<path
   id="_x32_5"
   fill="#FFFFFF"
   d="M174.2728271,138.556778c-0.8538055,1.0435333-6.460495,5.0822449-8.0110016,5.8575134  c-1.5505219,0.7752533-2.4980621-2.584198-1.8950806-3.7901611  C164.9697266,139.4181824,175.8233337,136.6617126,174.2728271,138.556778z" />
<path
   id="_x32_4"
   fill="#FFFFFF"
   d="M174.4450989,145.964798c-2.7564697-1.0336761-5.8574982,0.8614044-7.3218842,3.4456024  c-1.1434784,2.0179138-0.9475403,4.9099579-0.2584076,5.2545166  C167.5539246,155.0094757,175.657608,146.4194946,174.4450989,145.964798z" />
<path
   id="_x32_3"
   fill="#FFFFFF"
   d="M144.1239014,143.2944641c-0.6210938,0.6728516-1.119812,6.0297852-0.172287,7.8387299  c0.9475403,1.8089294,3.876297,2.0673523,9.992218,3.70401s7.4941559,4.0485687,8.700119,2.9287567  c0.8791962-0.8164062-0.8614044-6.8050537-6.4604797-11.1981812  C150.5843811,142.1746521,145.1575775,142.1746521,144.1239014,143.2944641z" />
<path
   id="_x32_2"
   fill="#FFFFFF"
   d="M149.2922821,157.6798096c6.9495392,1.4340363,11.7150116,7.1496124,12.576416,9.9060822  c0.8613892,2.7564697,0,5.5990753-1.0336761,5.2545166s-8.4417114-0.5168304-11.6288757-0.1722717  c-3.1871796,0.3445587-5.6852264-5.3406677-6.3743439-8.700119S143.8654785,156.5599976,149.2922821,157.6798096z" />
<path
   id="_x32_1"
   fill="#FFFFFF"
   d="M151.7903442,175.5968933c4.9099579-0.3445587,8.4416962,2.6703339,7.9248505,7.235733  c-0.4267883,3.769989-4.4792633,3.7901459-7.7525787,3.5317383c-3.2733154-0.2584229-6.2020569,2.5841827-7.7525787,1.5505066  C143.1183472,187.187088,143.1906281,176.2003784,151.7903442,175.5968933z" />
<path
   id="_x32_0"
   fill="#FFFFFF"
   d="M152.4220276,192.2792969c-2.2578278,1.2504883-6.4317627,4.4792633-6.8911743,7.235733  s-1.3094177,21.2500458-1.4930878,25.8419342c-0.2297058,5.7426453,2.5267639,6.8911896,5.0535278,4.7089691  c3.3281555-2.8743134,9.1882477-28.3686981,10.3367767-31.8142853S159.8874817,188.144577,152.4220276,192.2792969z" />
<path
   id="_x31_9"
   fill="#FFFFFF"
   d="M171.4876404,176.0850067c-1.3345947,1.6682434-5.6278076,9.0733948-6.316925,12.1744232  c-0.6891174,3.1010437-2.411911,23.659729-2.5267639,26.6459045c-0.1148529,2.9861908,1.4930878,3.6753082,2.7564697,2.6416168  c1.263382-1.0336761,3.675293-5.6277924,3.9049988-7.1208801s0.1148529-13.0932465,1.2633972-17.6873627  c1.1485291-4.5941315,1.7227936-7.2357483,2.1822052-10.3367767S172.8658752,174.3622131,171.4876404,176.0850067z" />
<path
   id="_x31_8"
   fill="#FFFFFF"
   d="M172.2916107,163.7957306c-0.9620667,1.7637939-3.4456024,3.5604553-4.4792786,5.2832489  s-1.0336761,4.5941162-0.1148529,4.823822s5.0535431-5.8574982,5.5129547-7.0060272  S172.9807281,162.5323486,172.2916107,163.7957306z" />
<path
   id="_x31_7"
   fill="#FFFFFF"
   d="M172.4064636,152.9995575c-2.411911,2.0673523-5.3981018,5.0535278-5.9723663,7.1208801  s0.4594116,4.7089844,0.9188232,4.2495728c0.4594116-0.4594269,2.9861908-4.5941315,5.0535431-7.1208954  S172.9579773,152.526825,172.4064636,152.9995575z" />
<path
   id="_x31_6"
   fill="#FFFFFF"
   d="M191.9314728,130.1437988c4.7379913-1.1148224,16.5482635,4.2328796,17.342804,17.342804  c0.4594116,7.580307-0.1148529,18.835907,0.1148529,20.9032593s-3.1010284,1.9524994-9.4179382-5.9723663  C193.6542664,154.4926453,184.1214752,131.9814453,191.9314728,130.1437988z" />
<path
   id="_x31_5"
   fill="#FFFFFF"
   d="M182.5135193,134.2785034c-1.1885681,1.6640015-5.3980865,6.0872192-4.5941162,24.923111  c0.0391846,0.917984,4.1347046-5.5129395,4.9386749-8.4991302c0.3498993-1.2995911,0.0979156-3.8495636,0.1148529-7.3505859  C182.9949188,138.8083649,183.1622162,133.3703461,182.5135193,134.2785034z" />
<path
   id="_x31_4"
   fill="#FFFFFF"
   d="M186.1888275,148.1757202c-1.4484863,3.3797913,1.263382,18.9507599,12.1744232,20.9032593  c1.3984375,0.2502441-2.4119263-1.7227936-7.2357483-10.9110413S186.5333862,147.3717499,186.1888275,148.1757202z" />
<path
   id="_x31_3"
   fill="#FFFFFF"
   d="M156.4418945,85.9253769c-1.9119568,1.4339676-8.2694244,9.6476593-9.6476593,11.7150116  s-0.4594116,2.9861832,8.9585266,2.9861832c9.4179535,0,20.4438477-3.6753006,19.1804657-5.5129471  c-0.6699066-0.9744186-4.823822-3.4455948-8.9585419-6.3169174  C161.8399811,85.9253769,157.8201294,84.8917007,156.4418945,85.9253769z" />
<path
   id="_x31_2"
   fill="#FFFFFF"
   d="M175.9669037,102.8087769c-0.4235535,1.270668,0.8039703,6.776329,6.8911743,13.0932465  c6.0872192,6.3169174,11.2556,10.3367691,11.7150116,10.5664749s0.7811737-6.7231979-4.2495575-14.1269226  C184.2363281,103.3830414,176.1966095,102.1196594,175.9669037,102.8087769z" />
<path
   id="_x31_1"
   fill="#FFFFFF"
   d="M183.0877991,100.2820053c0.5447845,1.6343918,8.3842621,9.3031006,15.5051575,21.1329651  c1.5101166,2.5087509,2.0721283-7.1873856-1.6079407-13.667511  C191.701767,98.4443588,182.2838135,97.8700943,183.0877991,100.2820053z" />

<path
   id="_x30_9"
   fill="#FFFFFF"
   d="M211.3990631,176.0275879c-3.7269745,1.8634796-5.6852264,17.0556793-1.8950806,33.422226  c3.7901611,16.3665619,11.1981812,27.3924561,12.2318573,27.7370148s0.1722717-14.6437683-1.0336761-28.7706909  c-1.2059631-14.1269226-5.3406677-26.0142059-6.0297852-29.2875214S212.4327393,175.5107422,211.3990631,176.0275879z" />
<path
   id="_x30_8"
   fill="#FFFFFF"
   d="M201.5791321,176.3721466c-3.6178741,4.3069916-5.1683807,19.6398621,0.8613892,34.8004761  c4.726944,11.8848572,8.0700531,18.662674,9.4753876,22.9131775c1.1821442,3.5754395,0.9846802,5.3362579,1.3782349,6.2020569  c0.8613892,1.8950806,2.3835297-2.291626-0.172287-10.8536072c-3.4455872-11.5427246-6.2020569-20.6735535-7.40802-34.4559174  C204.5078888,181.1959686,205.0266876,172.2678986,201.5791321,176.3721466z" />

<path
   id="_x30_6"
   fill="#FFFFFF"
   d="M173.210434,226.9649048c-1.2299805,0.8065491-13.4952393,14.0120697-18.3190613,26.4161987  c-4.823822,12.4041443-7.7525787,29.8043518-5.1683807,39.2797546c2.5841827,9.4753723,10.6813202,21.7072144,13.4378052,21.7072144  c2.7564697,0,0.8613892-14.1269226,4.823822-27.9093018c3.9624329-13.7823486,5.6852264-15.3328857,6.7189026-36.1786957  S176.7134552,224.6678467,173.210434,226.9649048z" />
<path
   id="_x30_5"
   fill="#FFFFFF"
   d="M177.6322784,247.6958771c-0.5168457,10.5090485-1.5505219,24.1191559-4.996109,36.3509979  c-3.4456024,12.231842-6.7575378,22.3774109-6.5466309,33.7667847c0.172287,9.3031006,3.6178741,14.4714966,5.8575134,15.160614  c2.239624,0.6891174,4.2496948-5.7168579,9.1308136-16.3665771c5.6852264-12.4041138,5.6852264-32.5608215,3.7901459-48.7550964  C183.3776245,255.1165314,178.0019226,240.1796875,177.6322784,247.6958771z" />
<path
   id="_x30_4"
   fill="#FFFFFF"
   d="M146.2773895,289.0429688c2.584198,8.7862549,8.2694244,21.7072144,13.9546509,29.6320801  s4.6515503,13.0932617,0.3445587,14.2992249c-4.3069916,1.2059326-12.16008-4.737793-14.6437683-19.6398926  C142.8318024,294.7282104,144.399704,282.658844,146.2773895,289.0429688z" />

<path
   id="_x30_2"
   fill="#FFFFFF"
   d="M170.3965302,350.0299377c0,7.6115723-2.0620422,27.4335938-5.8574982,43.4144592  c-3.2733154,13.7823486-6.3743439,24.6359558-6.5466309,40.1411133c-0.1722717,15.5051575,1.8950806,19.6398926,2.411911,17.744812  c0.5168457-1.8950806,1.0581055-25.9043579,6.2020721-43.586731c5.5129395-18.9507446,10.8536072-26.3587646,9.992218-40.6579895  C175.6869049,351.9514771,170.3965302,346.5843506,170.3965302,350.0299377z" />
<path
   id="_x30_1"
   fill="#FFFFFF"
   d="M152.3071747,352.441864c1.7227936,5.1683655,5.5129547,12.0595398,4.6515503,31.0103149  c-0.8614044,18.9507446-0.8614044,19.4675903-0.8614044,19.4675903s-0.6891174,30.665741-0.6891174,38.2460632  c0,7.5802917-1.3782349,5.6852112-1.7227936-1.2059631s-2.411911-26.5310669-4.996109-43.7590027  c-2.5841827-17.2279663,0.5168457-38.0737915,1.2059631-41.3471069S151.8449097,351.0550232,152.3071747,352.441864z" />
</svg>
