<?xml version="1.0" encoding="UTF-8" standalone="no"?>
<!-- Generator: Adobe Illustrator 28.6.0, SVG Export Plug-In . SVG Version: 9.03 Build 54939)  -->

<svg
   version="1.1"
   id="male_back"
   x="0px"
   y="0px"
   viewBox="0 0 278.7555542 504"
   enable-background="new 0 0 278.7555542 504"
   xml:space="preserve"
   sodipodi:docname="male_backside.svg"
   inkscape:version="1.3.2 (091e20e, 2023-11-25, custom)"
   xmlns:inkscape="http://www.inkscape.org/namespaces/inkscape"
   xmlns:sodipodi="http://sodipodi.sourceforge.net/DTD/sodipodi-0.dtd"
   xmlns="http://www.w3.org/2000/svg"
   xmlns:svg="http://www.w3.org/2000/svg"><defs
   id="defs1" /><sodipodi:namedview
   id="namedview1"
   pagecolor="#505050"
   bordercolor="#eeeeee"
   borderopacity="1"
   inkscape:showpageshadow="0"
   inkscape:pageopacity="0"
   inkscape:pagecheckerboard="0"
   inkscape:deskcolor="#505050"
   inkscape:zoom="1.5416667"
   inkscape:cx="139.13514"
   inkscape:cy="252"
   inkscape:window-width="1920"
   inkscape:window-height="991"
   inkscape:window-x="-9"
   inkscape:window-y="-9"
   inkscape:window-maximized="1"
   inkscape:current-layer="male_back" />
<path
   id="grey"
   fill="#5B5B5B"
   d="M138.8035431,27.0072441c0.3696594-0.0089931,0.9403229-0.0149307,1.5779572,0.0156879  c4.4634247,0.2143364,22.2324829,2.5885429,20.8757782,26.8584538c-0.0699768,1.2523155,1.8950806,0.258419,1.8950806,2.9287529  c0,2.67033-0.6891174,4.6515465-1.0336761,7.8387184s-3.1010284,3.7901535-3.876297,3.1871719  c0,0-1.3782349,14.299202-1.3782349,14.6437607s7.9248657,1.2059631,13.868515,5.3406677  c1.5617218,1.086319,5.9859619,2.0935287,9.647644,2.9287567c10.2742615,2.3435669,26.3587799,4.1347046,26.9904785,33.47966  c0.1225739,5.6943436,10.7961731,20.44384,6.6614685,46.8600388c-0.3729858,2.3829346,7.3506012,9.5902252,9.0733948,29.4023895  s3.7327271,42.4381866,3.9049988,55.3591614c0.172287,12.9209595-0.3445587,15.8497314-1.5505219,17.400238  c-1.2059479,1.5505066-8.4416962,8.9585266-13.0932465,9.8199463c-4.651535,0.8613892-7.0634613-5.51297-7.0634613-7.9248657  c0-2.4119263-4.6515503-8.9585571-2.7564697-13.2655334s7.7525787-8.9585419,8.2694244-11.5427246  c0.5168304-2.584198,0.7465363-14.3566437-7.1783142-31.7568817c-7.9248657-17.4002228-8.4991302-23.315155-8.671402-45.1946716  c-0.0109253-1.388855-5.0535431-5.2832336-10.6239166-16.8259583c0,0-4.3069916,10.1644897-7.5228729,15.4477234  c-3.2158813,5.2832489-6.4317627,14.4714813-3.9049988,26.6459045c2.9244995,14.0907593,8.1545563,12.3467102,9.6476593,44.5629883  c0.0643005,1.3874359,17.8022156,44.9649811-4.2495728,87.3457489c-0.7112427,1.3668518-3.4455872,6.3743286-1.0336761,18.4338989  s6.2020721,21.3626709-0.3445587,42.2084961c-6.5466156,20.8458252-13.7823639,30.8380432-12.5764008,60.986969  c0.0619049,1.5493164,4.8401184,9.2640686,9.1308136,14.1269226C178.6575165,472.176178,177.968399,477,173.3168488,477  c-3.2777863,0-17.227951,0-21.8795013,0s-7.0634613-2.239624-5.1683807-8.9585266  c1.8950653-6.7189026,3.6178589-38.0737915,0.3445587-54.4403687c-3.2733154-16.3665466-4.7089844-37.7292175-0.9188232-55.473999  c3.7901459-17.744812,6.6040497-18.0893555,1.7802124-28.0815735c-4.823822-9.992218-5.5756073-22.2216797-6.0297852-35.1450195  c-0.6316833-17.9745178,0.3445587-25.4973755-2.0674133-25.7557983c-2.41185,0.2584229-1.4355927,7.7812805-2.0672913,25.7557983  c-0.4541779,12.9233398-1.2059631,25.1528015-6.0297852,35.1450195c-4.8238297,9.992218-2.0099792,10.3367615,1.7802277,28.0815735  c3.7901459,17.7447815,2.3544769,39.1074524-0.9188232,55.473999c-3.2733154,16.3665771-1.5505219,47.7214661,0.3445587,54.4403687  C134.3816681,474.7604065,131.9697571,477,127.3182068,477c-4.6515427,0-18.6017075,0-21.8795013,0  c-4.6516037,0-5.3406677-4.823822-0.1722794-10.6813354c4.2906876-4.862854,9.0689011-12.5776062,9.1308136-14.1269226  c1.2059555-30.1489258-6.0297852-40.1411438-12.5764084-60.986969c-6.5466766-20.8458252-2.7564697-30.1489258-0.3445587-42.2084961  c2.4119186-12.0595398-0.3224258-17.0670471-1.0336761-18.4338989c-22.0517807-42.3807678-4.3138657-85.958313-4.2496185-87.3457031  c1.4931488-32.2163239,6.7232132-30.4722748,9.6477127-44.5630341c2.5267639-12.1744232-0.6891174-21.3626556-3.9050064-26.6459045  c-3.2158813-5.2832336-7.5228729-15.4477234-7.5228729-15.4477234c-5.5704269,11.5427246-10.6129913,15.4371033-10.623909,16.826004  c-0.1722794,21.8794708-0.7465439,27.7944031-8.671402,45.1946259s-7.6951523,29.1726837-7.1783142,31.7568817  c0.5168381,2.5841827,6.3743439,7.2357483,8.2694168,11.5427246c1.8950806,4.3070374-2.7564697,10.8536072-2.7564697,13.2655334  c0,2.4118958-2.4119186,8.7862549-7.0634613,7.9248657c-4.6515503-0.8614197-11.887291-8.2694397-13.0932503-9.8199463  c-1.2060127-1.5504761-1.7227936-4.4792786-1.5505142-17.400238c0.1722794-12.9209747,2.1821518-35.5470123,3.9050026-55.3591614  c1.7227936-19.8121643,9.446373-27.019455,9.0733871-29.4023895c-4.1347084-26.4161987,6.5389023-41.1656952,6.6614227-46.8600388  c0.631752-29.3449554,16.7162628-31.1360931,26.9905243-33.47966c3.6616898-0.835228,8.0859222-1.8424377,9.6476517-2.9287567  c5.9436493-4.1347046,13.8685074-4.996109,13.8685074-5.3406677s-1.3782349-14.6437607-1.3782349-14.6437607  c-0.7752609,0.6029816-3.5317307,0-3.8762894-3.1871719s-1.0336838-5.1683884-1.0336838-7.8387184  c0-2.6703339,1.965065-1.6764374,1.8950806-2.9287529c-1.3567047-24.2699108,16.4123535-26.6441174,20.8757935-26.8584538  c0.637619-0.0306187,1.2082825-0.0246811,1.5779419-0.0156879H138.8035431z" />
<path
   id="_x34_2"
   fill="#FFFFFF"
   d="M129.2132874,78.459938c-1.2313919,2.0523071-2.8139038,4.1347046-6.7189026,5.9149323  c-6.6967316,3.0529175-12.6338348,4.4793091-15.3328857,9.303093c-0.3468399,0.6198883,2.4119186,0.8613968,8.6139755,1.0336761  c6.2020645,0.1722794,9.6476593,2.9287567,13.7823715,5.3406677c4.1347046,2.4119186,5.1683807,1.7227936,5.1683807-6.3743439  s-1.0786743-12.7825699-1.5505066-14.299202C132.3717499,76.7945633,130.2469635,76.7371368,129.2132874,78.459938z" />
<path
   id="_x34_1"
   fill="#FFFFFF"
   d="M97.1118011,96.6641464c-3.4518509-0.0958862-6.0871506,0.6891174-1.952446,3.675293  c4.1347122,2.9861832,12.1655655,4.8080368,20.0992813,18.9507523c5.2832413,9.4179535,4.364418,14.3566284,9.1882477,20.5587006  c4.8237762,6.2020569,10.2219238,8.6139679,11.3704529,0c1.1485291-8.6139832,1.8376465-26.0716476,0.3445587-30.8954697  C134.668808,104.1295929,117.785408,97.2384109,97.1118011,96.6641464z" />
<path
   id="_x34_0"
   fill="#FFFFFF"
   d="M107.1040726,111.4801865c-1.7957611-2.9181213-4.9386826-4.7089767-8.6139755,0.6891174  c-3.6753006,5.3980942-6.5466232,11.8298645-6.3169174,14.1269226c0.2297058,2.2970657,13.3229523,5.1683884,17.227951,5.5129471  c3.9050064,0.3445587,3.9050064-2.5267181,2.5267715-8.2694168  C110.5496674,117.7971039,108.9417191,114.466362,107.1040726,111.4801865z" />
<path
   id="_x33_9"
   fill="#FFFFFF"
   d="M88.3830261,99.9948807c-5.5442581-0.9930038-11.9447174,1.9524994-12.1744232,13.8972168  c-0.2297592,11.9447174,3.1010361,16.1942825,3.9050064,15.0457535s11.8298645-15.3903122,14.3566284-19.0656052  C96.9970093,106.1969452,96.0781784,101.3731155,88.3830261,99.9948807z" />
<path
   id="_x33_8"
   fill="#FFFFFF"
   d="M87.5790558,129.7418213c-0.5379562-3.5863953-4.9386826-0.5742645-5.8575058,7.0060272  c-0.9188232,7.580307-1.0336761,16.5388489-4.1347122,22.396347c-3.1010284,5.8575134-3.7901459,8.9585419,0.5742722,9.0733948  c4.3644104,0.1148529,9.6939468-5.5329285,11.6000977-11.9447174c2.526825-8.4991302,0.6891708-15.3903046,0.1149063-18.1467743  C89.3018494,135.3696136,87.9235611,132.0389252,87.5790558,129.7418213z" />
<path
   id="_x33_7"
   fill="#FFFFFF"
   d="M74.7155151,129.9715271c1.8376465,2.411911,3.7901535,13.667511,0.3445053,22.0517883  c-3.4455414,8.3842621-4.6106644,11.1586609-4.9386292,13.7823639c-0.3445587,2.7564697-3.2158813,4.8238678-3.7901459-5.0535431  c-0.5742645-9.8773499,2.2970047-21.4775085,3.7901459-25.4973755  C71.6144791,131.2349091,73.4820938,128.3526611,74.7155151,129.9715271z" />
<path
   id="_x33_6"
   fill="#FFFFFF"
   d="M99.4089203,132.8428497c-7.1595383-0.6411438-7.9248581,1.7227936-6.4317703,9.1882477  c1.4930878,7.4654846,4.9386826,19.0655975,11.7150116,28.2538452s10.9110336,15.7348633,12.404129,23.659729  c1.4930878,7.9248962,0.5742645,9.0733948,4.5941162,7.9248962c4.0198593-1.1485596,13.8712997-9.6244659,15.8496628-20.7884369  c1.6080017-9.0733948-0.1243134-26.2555847-6.2020111-32.7331238  C122.6092377,139.0449219,107.1040726,133.5319672,99.4089203,132.8428497z" />
<path
   id="_x33_5"
   fill="#FFFFFF"
   d="M78.5056686,177.2909851c-2.9028168-0.7006836-10.2219238,2.7564697-11.7150726,13.8972168  c-1.4930344,11.1407471-0.8039093,17.1131439-4.364357,27.7944336c-3.5604439,10.6813354-2.9862328,16.079422-1.1485863,18.1467743  c1.8376503,2.0673676,3.6752968-2.411911,6.2021217-8.6139374c2.5267639-6.2021027,10.8241043-19.5566254,12.8635406-31.929184  C82.0661087,186.1346588,81.8364029,178.0949554,78.5056686,177.2909851z" />
<path
   id="_x33_4"
   fill="#FFFFFF"
   d="M66.3312454,180.1623077c1.4579544,2.0827942-1.2633896,7.006073-2.2971191,16.6536865  c-1.0336227,9.6477051-1.0336227,13.322998-4.9386253,28.828125c-0.4435081,1.7609863-1.493145,3.9049988-3.1010323,2.5267639  c-1.6079445-1.3782349,1.1485291-7.6951599,1.263382-19.5250244s3.6753006-21.9369354,4.9386253-25.2676697  C63.4599152,180.0474548,65.5272751,179.0137787,66.3312454,180.1623077z" />

<path
   id="_x33_2"
   fill="#FFFFFF"
   d="M137.7411194,193.6862488c0.0303955,1.0332336,0.0861359,13.3516693,0.0861359,16.3665619  s-0.6029663,2.7564697-2.411911,1.9812164c-1.8089294-0.7752533-7.9248581-5.5990906-6.7189026-8.2694244  c1.2059631-2.6703339,4.0485687-4.996109,5.5990906-8.2694092  C135.5118561,192.9273987,137.6549835,190.7575073,137.7411194,193.6862488z" />
<path
   id="_x33_1"
   fill="#FFFFFF"
   d="M130.8786469,212.7805786c2.4438782,1.6771545,5.2832489,3.7901764,6.2020721,8.0397034  c1.042572,4.8219147,0.8039703,14.3566284,0.4593506,16.4239807c-0.3444977,2.0673676-1.6078796,4.9386902-6.8911285,7.4654541  c-5.2832336,2.5267639-11.4853516,5.0535278-16.5388336,9.0733948c-5.0535889,4.0198669-11.6001587,7.2357483-13.5526581-4.5941315  c-1.3291168-8.052887,0.6891174-28.1389923,5.7425995-36.7529755c2.0017242-3.4119415,3.8907089-5.7570038,7.9249115-5.9723053  C118.2591782,206.2483063,125.0211487,208.7607117,130.8786469,212.7805786z" />
<path
   id="_x33_0"
   fill="#FFFFFF"
   d="M99.1792145,254.0128174c0.4554901,1.3209229,2.411911,9.992218,3.4455338,12.8635254  c1.0337372,2.8713379-1.4930344,5.3981018-3.6753006,14.2417908c-2.1821518,8.843689-3.100975,12.7486877-3.5603867,12.7486877  s-1.6079407-9.4179382-0.6891174-21.0180969S98.0306244,250.6820831,99.1792145,254.0128174z" />
<path
   id="_x32_9"
   fill="#FFFFFF"
   d="M111.4684906,261.2485657c1.2633286,0.8039551,0.1148529,5.3980713-1.6079407,10.7961731  c-1.7228546,5.3981018-6.6614838,22.8557739-0.5742722,41.9214172c0.4418716,1.3839111,0.9188309,4.1346436-0.9188232,7.809967  c-1.8376465,3.675293-3.5604401,9.1882324-4.0198517,7.9248352c-0.4594116-1.2633667-0.4594116-16.5388184-2.2970657-28.7132568  c-1.8376465-12.174408-0.9188232-23.8894348,2.9861832-31.2400208c1.3268738-2.4976501,3.2778244-5.0746155,4.3644104-6.5466309  C110.7257767,261.4065552,111.0846329,261.0042725,111.4684906,261.2485657z" />
<path
   id="_x32_8"
   fill="#FFFFFF"
   d="M131.4529114,249.8780975c-2.9997864,0.3599854-8.499115,6.431778-7.9248505,11.1407623  c0.5742645,4.7089539,3.9049454,21.5923767,6.2020569,34.2261963c2.2970123,12.6338501,1.6079407,17.4576721,2.4119263,16.4239807  c0.8039093-1.0336609,3.675293-25.8419189,3.7901459-38.0163574  C136.0470428,261.4782715,134.3242493,249.5335388,131.4529114,249.8780975z" />
<path
   id="_x32_7"
   fill="#FFFFFF"
   d="M126.9736481,294.4411011c2.4169312,3.8267822,3.652832,17.68396,2.0673523,28.2538452  c-1.0336761,6.8912048-3.4780426,10.8685913-4.3644714,10.3367615c-0.5742035-0.3445435-1.9524384-6.4317627,0.2297668-19.4101562  C127.613327,297.5218506,125.5953598,292.2588806,126.9736481,294.4411011z" />
<path
   id="_x32_6"
   fill="#FFFFFF"
   d="M119.7379074,259.640625c0.5791016,2.8955078,2.0673523,67.5335693,1.4930878,68.6820984  s-3.675293-3.1010132-8.2694168-13.7823486c-4.5941238-10.6813049-3.7901535-26.6459045-1.0336761-37.2124023  c1.227684-4.7061157,2.8588562-10.0712891,4.0198593-13.322937  C117.9780731,258.3186646,119.1533508,256.7178345,119.7379074,259.640625z" />
<path
   id="_x32_5"
   fill="#FFFFFF"
   d="M118.8190842,330.1603699c-1.6755829-2.1057739-2.6416168-1.1485291-2.0673523,2.9862061  c0.5742035,4.1347046,1.1485291,19.2952881,1.0336761,29.2875061s1.4930878,15.9645691,2.9861755,18.3764954  c1.4930954,2.4119263,6.0872116,7.6951599,7.8100052,8.9585266c1.7227936,1.2633972,4.2495728-5.5129395,3.4455414-20.2141418  C131.3237457,356.6921997,127.3182068,340.8417053,118.8190842,330.1603699z" />
<path
   id="_x32_4"
   fill="#FFFFFF"
   d="M113.6506424,325.3365479c1.0337296,3.1010437,0.459465,31.0103149,1.4931412,41.8065186  c1.0336838,10.7961731,1.3345947,14.513916,1.4930954,16.653717c0.2297058,3.1010132-2.6899109,5.6001892-5.8575058,3.7901306  c-3.215889-1.8376465-9.5328064-13.3229675-8.7288361-23.0854492c0.8039703-9.7625427,5.9723587-30.5509338,7.580307-35.3747559  C111.2387848,324.302887,113.1448212,323.8189392,113.6506424,325.3365479z" />
<path
   id="_x32_3"
   fill="#FFFFFF"
   d="M112.3298874,393.0424194c-0.4762497-1.1641541-1.9713211-1.7123718-2.7564697-0.2871399  c-0.9189911,1.6682129-1.2161865,4.7841492-0.2871399,7.6951599c1.7228012,5.3981323,7.6951599,20.7884216,9.7625122,47.0897522  c0.0899963,1.144989,1.0336227-5.2832336-1.3782349-23.3151245  C115.2586365,406.1930847,112.6464767,393.8163147,112.3298874,393.0424194z" />
<path
   id="_x32_2"
   fill="#FFFFFF"
   d="M132.7163086,393.7889709c-0.8614044,4.9960938-4.4792786,25.2676697-5.168396,40.8876953  c-0.6891174,15.6199951-0.9188232,16.99823-1.3782349,8.0397034s1.4930878-33.5370789,2.1821594-41.4619141  c0.6891632-7.9248962,2.6416626-9.1882324,3.3882141-9.3031311  C132.4866028,391.8364563,132.9116821,392.6557312,132.7163086,393.7889709z" />
<path
   id="_x32_1"
   fill="#FFFFFF"
   d="M149.5422668,78.459938c1.2313995,2.0523071,2.8139038,4.1347046,6.7189026,5.9149323  c6.6967316,3.0529175,12.6338348,4.4792633,15.3328857,9.303093c0.3468475,0.6198883-2.411911,0.8613968-8.6139832,1.0336761  c-6.2020569,0.1722794-9.647644,2.9287567-13.7823639,5.3406677c-4.1347046,2.4119186-5.1683807,1.7227936-5.1683807-6.3743439  s1.0786743-12.7825699,1.5505219-14.299202C146.3838196,76.7945633,148.5085907,76.7371368,149.5422668,78.459938z" />
<path
   id="_x32_0"
   fill="#FFFFFF"
   d="M181.643692,96.6641464c3.4519196-0.0958862,6.0872192,0.6891174,1.9525146,3.675293  c-4.1347198,2.9861832-12.1655731,4.8080368-20.0992889,18.9507523c-5.2832336,9.4179535-4.3644104,14.3566284-9.1882477,20.5587006  c-4.823822,6.2020569-10.2219238,8.6139679-11.3704529,0c-1.1485291-8.6139832-1.8376465-26.0716476-0.3445587-30.8954697  C144.0867462,104.1295929,160.9701538,97.2384109,181.643692,96.6641464z" />
<path
   id="_x31_9"
   fill="#FFFFFF"
   d="M171.6514893,111.4801865c1.7957611-2.9181213,4.9386749-4.7089767,8.6139679,0.6891174  c3.6753082,5.3980942,6.5466309,11.8298645,6.316925,14.1269226c-0.2297058,2.2970657-13.3229523,5.1683884-17.2279663,5.5129471  c-3.9049988,0.3445587-3.9049988-2.5267639-2.5267639-8.2694168S169.8138428,114.466362,171.6514893,111.4801865z" />
<path
   id="_x31_8"
   fill="#FFFFFF"
   d="M190.3725281,99.9948807c5.5442657-0.9930038,11.9447174,1.9524994,12.1744232,13.8972168  s-3.1010284,16.1942825-3.9049988,15.0457535s-11.8298645-15.3903122-14.3566284-19.0656052  C181.7585449,106.1969452,182.6773834,101.3731155,190.3725281,99.9948807z" />
<path
   id="_x31_7"
   fill="#FFFFFF"
   d="M191.1764984,129.7418213c0.5379639-3.5863953,4.9386902-0.5742645,5.8575134,7.0060272  c0.9188232,7.580307,1.0336761,16.5388489,4.1347046,22.396347c3.1010284,5.8575134,3.7901459,8.9585419-0.5742645,9.0733948  s-9.6939545-5.5329285-11.6001587-11.9447174c-2.5267639-8.4991302-0.6891174-15.3903046-0.1148529-18.1467743  C189.4537048,135.3696136,190.8319397,132.0388794,191.1764984,129.7418213z" />
<path
   id="_x31_6"
   fill="#FFFFFF"
   d="M204.0400391,129.9715271c-1.8376465,2.411911-3.7901459,13.667511-0.3445587,22.0517883  c3.4455872,8.3842621,4.6107178,11.1586609,4.9386902,13.7823639c0.3445587,2.7564697,3.2158813,4.823822,3.7901459-5.0535431  c0.5742645-9.8773499-2.2970581-21.4775085-3.7901459-25.4973755  C207.1410675,131.2349091,205.273468,128.3526611,204.0400391,129.9715271z" />
<path
   id="_x31_5"
   fill="#FFFFFF"
   d="M179.3466339,132.8428497c7.1595459-0.6411438,7.9248657,1.7227936,6.431778,9.1882477  s-4.9386902,19.0655975-11.7150116,28.2538452c-6.7763367,9.1882477-10.9110413,15.7348633-12.404129,23.659729  s-0.5742645,9.0733948-4.5941162,7.9248657c-4.0198669-1.1485291-13.8713074-9.6244354-15.8497314-20.7884064  c-1.6079407-9.0733948,0.1243896-26.2555847,6.2020721-32.7331238  C156.1463165,139.0449219,171.6514893,133.5319672,179.3466339,132.8428497z" />
<path
   id="_x31_4"
   fill="#FFFFFF"
   d="M200.2498932,177.2909851c2.9028168-0.7006836,10.2219238,2.7564697,11.7150116,13.8972168  s0.8039703,17.1130981,4.3644104,27.7944336c3.5604553,10.6813354,2.9861755,16.079422,1.1485291,18.1467743  c-1.8376465,2.0673676-3.675293-2.411911-6.2020569-8.6139679c-2.5267639-6.2020721-10.8241119-19.5565948-12.8635406-31.9291534  C196.6894531,186.1346588,196.9191589,178.0949554,200.2498932,177.2909851z" />
<path
   id="_x31_3"
   fill="#FFFFFF"
   d="M212.4243164,180.1623077c-1.457962,2.0827942,1.263382,7.0060272,2.2970581,16.6536865  s1.0336761,13.3229523,4.9386749,28.828125c0.443512,1.7609863,1.493103,3.9049988,3.1010437,2.5267639  s-1.1485291-7.6951599-1.263382-19.5250244s-3.6753082-21.9369354-4.9386902-25.2676697  S213.2282867,179.0137787,212.4243164,180.1623077z" />

<path
   id="_x31_1"
   fill="#FFFFFF"
   d="M141.0144348,193.6862488c-0.0303955,1.0332336-0.0861359,13.3516693-0.0861359,16.3665619  s0.6029816,2.7564697,2.411911,1.9812164s7.9248657-5.5990906,6.7189026-8.2694244s-4.0485687-4.996109-5.5990906-8.2694092  C143.2436981,192.9273987,141.1005707,190.7575073,141.0144348,193.6862488z" />
<path
   id="_x31_0"
   fill="#FFFFFF"
   d="M147.8769073,212.7805786c-2.4438629,1.6771545-5.2832489,3.7901459-6.2020721,8.0397034  c-1.042572,4.8219147-0.8039703,14.3566284-0.4594116,16.4239807c0.3445587,2.0673676,1.6079407,4.9386902,6.8911896,7.4654541  c5.2832336,2.5267639,11.4853058,5.0535278,16.5388336,9.0733948c5.0535431,4.0198669,11.6001587,7.2357483,13.5526581-4.5941315  c1.3291168-8.052887-0.6891174-28.1389923-5.7426453-36.7529755c-2.0016785-3.4119415-3.8906555-5.7570038-7.9248657-5.9723511  S153.7344055,208.7607117,147.8769073,212.7805786z" />
<path
   id="_x30_9"
   fill="#FFFFFF"
   d="M179.5763397,254.0128174c-0.4554901,1.3209229-2.411911,9.992218-3.4455872,12.8635254  c-1.0336761,2.8713379,1.4930878,5.3981018,3.675293,14.2417908c2.1822205,8.843689,3.1010437,12.7486877,3.5604553,12.7486877  s1.6079407-9.4179382,0.6891174-21.0180969S180.7248688,250.6820831,179.5763397,254.0128174z" />
<path
   id="_x30_8"
   fill="#FFFFFF"
   d="M167.2870636,261.2485657c-1.263382,0.8039551-0.1148529,5.3980713,1.6079407,10.7961731  c1.7228088,5.3981018,6.6614838,22.8557739,0.5742798,41.9213562c-0.4418793,1.3839722-0.9188385,4.1347046,0.9188232,7.8100281  c1.8376465,3.675293,3.5604401,9.1882324,4.0198517,7.9248352c0.4594116-1.2633667,0.4594116-16.5388184,2.2970581-28.7132568  c1.8376465-12.174408,0.9188232-23.8894348-2.9861755-31.2400208c-1.3268738-2.4976501-3.277832-5.0746155-4.3644257-6.5466309  C168.0297852,261.4065552,167.670929,261.0042725,167.2870636,261.2485657z" />
<path
   id="_x30_7"
   fill="#FFFFFF"
   d="M147.3026428,249.8780975c2.9997864,0.3599854,8.499115,6.431778,7.9248505,11.1407623  c-0.5742645,4.7089539-3.9049988,21.5923767-6.2020569,34.2261963c-2.2970581,12.6338501-1.6079407,17.4576721-2.411911,16.4239807  c-0.8039703-1.0336609-3.6753082-25.8419189-3.7901611-38.0163574  C142.7085114,261.4782715,144.4313202,249.5335388,147.3026428,249.8780975z" />
<path
   id="_x30_6"
   fill="#FFFFFF"
   d="M151.7819061,294.4411011c-2.4169312,3.8267822-3.652832,17.68396-2.0673523,28.2538452  c1.0336761,6.8911743,3.4780426,10.8685913,4.3644104,10.3367615c0.5742645-0.3445435,1.9524994-6.4317627-0.2297058-19.4101562  C151.1422272,297.5218506,153.160141,292.2588806,151.7819061,294.4411011z" />
<path
   id="_x30_5"
   fill="#FFFFFF"
   d="M159.0176544,259.640625c-0.5791016,2.8955078-2.0673523,67.5335693-1.4930878,68.6820984  s3.675293-3.1010132,8.2694092-13.7823486c4.5941315-10.6813354,3.7901611-26.6459045,1.0336761-37.2124023  c-1.2276764-4.7061157-2.8588562-10.0712891-4.0198517-13.322937  C160.7774811,258.3186646,159.6022034,256.7178345,159.0176544,259.640625z" />
<path
   id="_x30_4"
   fill="#FFFFFF"
   d="M159.9364777,330.1603699c1.6755829-2.1057739,2.6416168-1.1485291,2.0673523,2.9862061  c-0.5742645,4.1347046-1.1485291,19.2952881-1.0336761,29.2875061s-1.4930878,15.9645691-2.9861755,18.3764954  c-1.493103,2.4119263-6.0872192,7.6951599-7.8100128,8.9585266c-1.7227936,1.2633972-4.2495575-5.5129395-3.4455872-20.2141418  C147.4318085,356.6921997,151.4373474,340.8417053,159.9364777,330.1603699z" />
<path
   id="_x30_3"
   fill="#FFFFFF"
   d="M165.1048584,325.3365479c-1.0336761,3.1010437-0.4594116,31.0103149-1.4930878,41.8065186  c-1.0336761,10.7961731-1.3345947,14.513916-1.4930878,16.6536865c-0.2297058,3.1010437,2.6899109,5.6002197,5.8574982,3.7901611  c3.2158966-1.8376465,9.5328064-13.3229675,8.7288361-23.0854797s-5.9723511-30.5509033-7.580307-35.3747253  C167.5167694,324.302887,165.610733,323.8189392,165.1048584,325.3365479z" />
<path
   id="_x30_2"
   fill="#FFFFFF"
   d="M166.4256744,393.0424194c0.4762421-1.1641541,1.9713135-1.7123718,2.7564697-0.2871399  c0.9189911,1.6682129,1.2161865,4.7841492,0.2871399,7.6951599c-1.7228088,5.3981018-7.6951599,20.7884216-9.7625122,47.0897522  c-0.0900116,1.144989-1.0336761-5.2832336,1.3782349-23.315155  C163.4969177,406.1930847,166.1090851,393.8163147,166.4256744,393.0424194z" />
<path
   id="_x30_1"
   fill="#FFFFFF"
   d="M146.0392609,393.7889709c0.8613892,4.9960938,4.4792633,25.2676697,5.1683807,40.8876953  c0.6891174,15.6199951,0.9188232,16.99823,1.3782349,8.0397034s-1.4930878-33.5370789-2.1822052-41.4619446  s-2.6416168-9.1882629-3.3881683-9.3031006C146.2689667,391.8364563,145.8438721,392.6557312,146.0392609,393.7889709z" />
</svg>
